<?xml version="1.0" standalone="no"?>
<!DOCTYPE svg PUBLIC "-//W3C//DTD SVG 1.1//EN" "http://www.w3.org/Graphics/SVG/1.1/DTD/svg11.dtd" >
<svg xmlns="http://www.w3.org/2000/svg" xmlns:xlink="http://www.w3.org/1999/xlink" version="1.1">
<metadata></metadata>
<defs>
<font id="centralesansxlight" horiz-adv-x="1626" >
<font-face units-per-em="2048" ascent="1536" descent="-512" />
<missing-glyph horiz-adv-x="542" />
<glyph unicode="&#xfb01;" horiz-adv-x="1097" d="M70 993v72h139v98q3 154 98 251t258 97q145 0 309 -90l-28 -59q-142 78 -277 78q-68 0 -120 -25t-82 -67t-45 -91t-15 -102v-90h613v-1065h-99v993h-514v-993h-98v993h-139z" />
<glyph unicode="&#xfb02;" horiz-adv-x="1167" d="M68 993v72h139v80q0 176 95 271t253 95q157 0 257.5 -92.5t100.5 -271.5v-989q0 -57 21 -76t61 -19q18 0 38.5 1.5t34 2.5t15.5 1l2 -72q-32 -8 -118 -8q-77 0 -114.5 35t-37.5 122v1002q0 140 -72.5 214.5t-187.5 74.5q-114 0 -182 -75.5t-68 -211.5v-84h277v-72h-277 v-993h-98v993h-139z" />
<glyph unicode="&#xfb03;" horiz-adv-x="1591" d="M63 993v72h140v135q0 157 61.5 234t214.5 77q75 0 137 -16l-10 -72q-76 13 -114 13q-103 0 -147 -59.5t-44 -170.5v-141h451v106q0 161 84 257t245 96q170 0 316 -80l-27 -64q-137 68 -278 68q-72 0 -122 -25.5t-75 -69t-35 -87.5t-10 -95v-106h569v-1065h-98v993h-471 v-993h-98v993h-451v-993h-98v993h-140z" />
<glyph unicode="&#xfb04;" horiz-adv-x="1716" d="M72 993v72h137v135q0 156 61.5 233.5t212.5 77.5q74 0 140 -16l-13 -72q-76 13 -112 13q-105 0 -148 -58.5t-43 -171.5v-141h451v92q0 175 94.5 271t251.5 96t257.5 -93.5t100.5 -273.5v-999q0 -57 21 -76t61 -19q18 0 38.5 1.5t34 2.5t15.5 1l2 -72q-32 -8 -118 -8 q-77 0 -114.5 35t-37.5 122v1012q0 141 -71.5 216t-188.5 75q-114 0 -181 -76.5t-67 -214.5v-92h274v-72h-274v-993h-98v993h-451v-993h-98v993h-137z" />
<glyph horiz-adv-x="946" />
<glyph horiz-adv-x="946" />
<glyph horiz-adv-x="682" />
<glyph unicode="&#xd;" horiz-adv-x="585" />
<glyph unicode=" "  horiz-adv-x="542" />
<glyph unicode="&#x09;" horiz-adv-x="542" />
<glyph unicode="&#xa0;" horiz-adv-x="542" />
<glyph unicode="!" horiz-adv-x="491" d="M178 49q0 30 17.5 47t50.5 17q32 0 49.5 -17t17.5 -47q0 -63 -67 -63q-68 0 -68 63zM199 1442h102l-10 -1090h-82z" />
<glyph unicode="&#x22;" horiz-adv-x="747" d="M172 944l39 490h102l-82 -490h-59zM451 944l38 490h103l-82 -490h-59z" />
<glyph unicode="#" horiz-adv-x="1581" d="M115 350l16 84h291l98 551h-293l15 86h293l65 367h86l-65 -367h477l65 367h86l-65 -367h286l-16 -86h-285l-98 -551h291l-14 -84h-291l-62 -350h-86l62 350h-475l-62 -350h-90l62 350h-291zM510 434h475l98 551h-477z" />
<glyph unicode="$" horiz-adv-x="1189" d="M139 92l27 78q65 -33 187.5 -66.5t252.5 -33.5q178 0 272.5 74t94.5 210q0 58 -24.5 105t-50.5 75t-93 58.5t-99.5 41.5t-122.5 38q-8 3 -12 4q-58 18 -92.5 29.5t-85.5 32.5t-81.5 40.5t-66.5 50t-55.5 64.5t-33 80.5t-13.5 101.5q0 168 113.5 267t316.5 106v160h62 v-158q183 -6 383 -88l-29 -82q-18 10 -63 27.5t-138 38t-180 20.5q-163 0 -260.5 -72t-97.5 -207q0 -44 12.5 -81t28 -64t51 -52t59 -39.5t76 -34t78.5 -27.5t88 -26q2 -1 3 -1t3 -1t4 -1q78 -22 130.5 -41t114 -52t98 -71t61 -97t24.5 -132q0 -179 -119.5 -276t-326.5 -105 v-162h-62v162q-240 12 -434 106z" />
<glyph unicode="%" horiz-adv-x="1630" d="M98 1104q0 154 88 251t230 97t228.5 -96.5t86.5 -249.5q0 -152 -86.5 -248t-230.5 -96q-140 0 -228 96t-88 246zM174 1106q0 -121 68.5 -199t173.5 -78t170 78t65 199q0 123 -65.5 201.5t-171.5 78.5q-104 0 -172 -80t-68 -200zM354 0l828 1438h84l-826 -1438h-86z M899 328q0 153 89 250.5t231 97.5q140 0 226.5 -97.5t86.5 -250.5q0 -151 -86 -246.5t-229 -95.5q-140 0 -229 96t-89 246zM977 328q0 -120 69 -198.5t173 -78.5t169.5 78t65.5 199q0 124 -66 203t-171 79q-104 0 -172 -80t-68 -202z" />
<glyph unicode="&#x26;" horiz-adv-x="1337" d="M109 358q0 62 19 119t47.5 100t74 86.5t87 73.5t97.5 66q-101 114 -144.5 189t-43.5 163q0 131 92 212t225 81q129 0 215 -76.5t86 -204.5q0 -54 -18 -102t-43.5 -82.5t-71.5 -71.5t-82 -60t-96 -58l422 -478q72 91 153 258l70 -36q-74 -162 -170 -283l225 -254h-104 l-172 193q-190 -207 -440 -207q-116 0 -211.5 42t-156 128t-60.5 202zM201 373q0 -137 99 -221t247 -84q209 0 377 186l-443 496q-58 -35 -100.5 -68t-87 -80t-68.5 -105t-24 -124zM332 1147q0 -65 37.5 -128t134.5 -173q54 34 85.5 54.5t72.5 54t62.5 62.5t37.5 68t16 82 q0 93 -61 148t-152 55q-97 0 -165 -62.5t-68 -160.5z" />
<glyph unicode="'" horiz-adv-x="479" d="M172 944l39 490h102l-82 -490h-59z" />
<glyph unicode="(" horiz-adv-x="655" d="M119 575q0 159 37 309.5t97.5 266t127 202.5t137.5 146h107q-76 -66 -141.5 -149t-127.5 -197t-98.5 -263.5t-36.5 -314.5t36.5 -314.5t98.5 -263t127.5 -196t141.5 -149.5h-107q-71 59 -137.5 145.5t-127 202.5t-97.5 266t-37 309z" />
<glyph unicode=")" horiz-adv-x="655" d="M35 -348q59 52 112 113t108 148t94 183t64 221t25 258t-25 258t-64 221t-94 183.5t-108 148.5t-112 113h106q71 -59 137.5 -146t127.5 -202.5t98 -266t37 -309.5q0 -158 -37 -308.5t-98 -266.5t-127.5 -202.5t-137.5 -145.5h-106z" />
<glyph unicode="*" horiz-adv-x="899" d="M158 1100l245 125l-243 127l37 63l233 -149l-14 272h71l-12 -272l232 149l36 -63l-243 -127l245 -125l-38 -68l-232 152l12 -275h-71l14 275l-233 -152z" />
<glyph unicode="+" horiz-adv-x="1142" d="M145 643v74h387v391h74v-391h391v-74h-391v-387h-74v387h-387z" />
<glyph unicode="," horiz-adv-x="485" d="M152 -223q52 30 88 78t36 108q0 32 -14 60q-8 -31 -39 -31q-27 0 -41 16.5t-14 40.5q0 30 19 48t49 18q39 0 68.5 -40.5t29.5 -103.5q0 -73 -46 -134t-116 -95z" />
<glyph unicode="-" horiz-adv-x="1050" d="M162 516v78h725v-78h-725z" />
<glyph unicode="." horiz-adv-x="450" d="M160 53q0 31 17 48.5t48 17.5t48.5 -17.5t17.5 -48.5q0 -29 -17.5 -46t-48.5 -17q-65 0 -65 63z" />
<glyph unicode="/" horiz-adv-x="954" d="M-49 -348l856 1853h84l-858 -1853h-82z" />
<glyph unicode="0" horiz-adv-x="1392" d="M135 717q0 215 62 378t190.5 258t310.5 95q181 0 308.5 -94.5t189 -256.5t61.5 -376q0 -162 -36 -296t-105.5 -232t-176.5 -152.5t-243 -54.5q-180 0 -308 94.5t-190.5 257.5t-62.5 379zM242 719q0 -192 49 -336t152.5 -228.5t252.5 -84.5t253 84t153 227.5t49 335.5 t-49.5 336t-153.5 227.5t-252 83.5t-251.5 -83t-153 -226.5t-49.5 -335.5z" />
<glyph unicode="1" horiz-adv-x="735" d="M113 1280l315 158h86v-1438h-104v1339l-263 -131z" />
<glyph unicode="2" horiz-adv-x="1140" d="M109 0v76l512 454q73 66 119.5 114.5t92.5 112t67.5 131t21.5 142.5q0 162 -100.5 248t-266.5 86q-103 0 -202.5 -30.5t-172.5 -71.5l-30 73q197 113 419 113q203 0 331 -107.5t128 -308.5q0 -150 -81 -276.5t-267 -286.5l-434 -383h782v-86h-919z" />
<glyph unicode="3" horiz-adv-x="1150" d="M113 80l30 78q64 -34 167.5 -61t203.5 -27q71 0 134 12t118 37.5t94.5 64t62.5 94.5t23 125q0 101 -63 178t-155 114.5t-193 37.5h-150v76h150q64 0 123 16t111.5 48t84 89.5t31.5 133.5q0 71 -29 124t-80.5 83.5t-115.5 45.5t-140 15q-80 0 -176.5 -23.5t-171.5 -58.5 l-25 72q75 37 188.5 65.5t207.5 28.5q127 0 226 -37t159.5 -115.5t60.5 -189.5q0 -127 -75.5 -216.5t-208.5 -121.5q154 -30 250 -131t96 -246q0 -133 -71 -226t-188 -136t-270 -43q-109 0 -222 28t-187 66z" />
<glyph unicode="4" horiz-adv-x="1212" d="M90 360v76l782 1002h91v-996h184v-82h-184v-360h-103v360h-770zM199 442h659v848z" />
<glyph unicode="5" horiz-adv-x="1167" d="M121 88l33 80q182 -98 378 -98q199 0 315 92t116 270q0 168 -98 262t-287 94q-98 0 -173.5 -29.5t-156.5 -84.5l-68 49l47 711h762v-86h-684l-35 -580q144 102 330 102q212 0 340.5 -116t128.5 -314q0 -213 -143.5 -333.5t-380.5 -120.5q-229 0 -424 102z" />
<glyph unicode="6" horiz-adv-x="1290" d="M125 682q0 321 143 530q158 236 457 236q211 0 399 -88l-32 -74q-181 78 -357 78q-267 0 -395 -213q-102 -165 -109 -451q0 -71 2 -104q52 127 176.5 207t301.5 80q211 0 342 -114.5t131 -328.5q0 -210 -138 -332t-362 -122q-359 0 -483 293q-76 171 -76 403zM270 428 q0 -160 116 -259t292 -99q180 0 289.5 100t109.5 268q0 179 -108.5 271t-288.5 92q-90 0 -168 -32t-130.5 -84t-82 -119t-29.5 -138z" />
<glyph unicode="7" horiz-adv-x="1032" d="M47 1348v86h924v-82l-598 -1352h-117l606 1348h-815z" />
<glyph unicode="8" horiz-adv-x="1239" d="M92 379q0 152 98 253t279 130q-148 30 -226.5 118.5t-78.5 215.5q0 163 124.5 257.5t329.5 94.5t331 -95t126 -257q0 -123 -78 -213t-229 -121q175 -28 276 -128t101 -255q0 -127 -69 -217t-185.5 -133t-269.5 -43q-113 0 -208.5 24.5t-167.5 72.5t-112.5 123.5 t-40.5 172.5zM199 379q0 -144 113.5 -226.5t305.5 -82.5t306 82.5t114 226.5q0 152 -113.5 242t-306.5 90t-306 -89.5t-113 -242.5zM266 1090q0 -123 95 -203t260 -80q164 0 258 80t94 203q0 133 -96.5 203.5t-255.5 70.5q-160 0 -257.5 -70.5t-97.5 -203.5z" />
<glyph unicode="9" horiz-adv-x="1308" d="M106 993q0 209 139 332t363 123q368 0 492 -307q65 -162 65 -389q0 -345 -131 -533q-72 -108 -192.5 -170.5t-280.5 -62.5q-211 0 -399 88l33 73q188 -77 356 -77q144 0 247.5 56.5t164.5 152.5q90 145 94 454q0 70 -2 101q-52 -128 -174 -205.5t-301 -77.5 q-210 0 -342 114.5t-132 327.5zM213 995q0 -173 109.5 -267.5t285.5 -94.5q121 0 217 54.5t145.5 139t49.5 179.5q0 159 -114.5 258.5t-295.5 99.5q-180 0 -288.5 -99.5t-108.5 -269.5z" />
<glyph unicode=":" horiz-adv-x="456" d="M164 53q0 29 17.5 47.5t49.5 18.5q31 0 48.5 -18.5t17.5 -47.5q0 -28 -17.5 -44.5t-48.5 -16.5q-67 0 -67 61zM164 836q0 29 17 47t50 18q31 0 48.5 -18t17.5 -47q0 -28 -18 -45t-48 -17q-32 0 -49.5 16.5t-17.5 45.5z" />
<glyph unicode=";" horiz-adv-x="548" d="M190 -229q50 27 86 79.5t37 116.5q0 24 -12 56q-9 -31 -41 -31q-27 0 -41 16.5t-14 40.5q0 30 18.5 48t48.5 18q40 0 69.5 -40t29.5 -104q0 -74 -44 -136.5t-116 -100.5zM199 836q0 29 17 47t50 18q31 0 48.5 -18t17.5 -47q0 -28 -18 -46t-48 -18q-32 0 -49.5 17 t-17.5 47z" />
<glyph unicode="&#x3c;" horiz-adv-x="1177" d="M45 645v78l1038 362v-84l-929 -317l929 -315v-84z" />
<glyph unicode="=" horiz-adv-x="1067" d="M170 461v69h725v-69h-725zM170 797v69h725v-69h-725z" />
<glyph unicode="&#x3e;" horiz-adv-x="1177" d="M94 285v84l928 315l-928 317v84l1039 -362v-78z" />
<glyph unicode="?" horiz-adv-x="970" d="M111 1346q149 102 348 102q80 0 150.5 -19.5t129 -57.5t93 -103.5t34.5 -149.5q0 -67 -22 -122t-57.5 -93t-78 -72t-85.5 -66t-78.5 -67t-57.5 -83.5t-22 -106.5v-156h-84v158q0 64 21.5 117.5t56 91t76 71t82.5 66.5t75.5 67.5t56 83t21.5 105.5q0 125 -92 188.5 t-225 63.5q-162 0 -310 -92zM356 49q0 66 68 66q33 0 51.5 -17.5t18.5 -48.5q0 -63 -70 -63q-68 0 -68 63z" />
<glyph unicode="@" horiz-adv-x="1970" d="M113 524q0 267 117.5 469t332 312t496.5 110q130 0 245.5 -24t217.5 -77t175 -131.5t115.5 -194.5t42.5 -259q0 -157 -47 -279t-144 -195t-230 -73q-215 0 -215 176q-96 -174 -318 -174q-167 0 -262 104.5t-92 282.5q2 68 17.5 130.5t47 119.5t77.5 98.5t112.5 66 t146.5 24.5q127 0 209 -61.5t111 -166.5l45 217h69l-100 -569q-33 -190 160 -190q73 0 132 28t98 74.5t66 110t38.5 132.5t11.5 144q0 135 -40 243t-108 179t-162.5 118.5t-198.5 68t-222 20.5q-261 0 -459.5 -102t-307 -290.5t-108.5 -437.5q0 -143 37 -259.5t102.5 -198 t157.5 -137t201.5 -81.5t234.5 -26q266 0 508 102l13 -55q-262 -102 -523 -102q-177 0 -322.5 47.5t-252.5 139.5t-166 236.5t-59 329.5zM627 571q-3 -151 73.5 -237t214.5 -86q85 0 149 33.5t99.5 91t52.5 123t17 139.5q0 149 -69.5 230t-205.5 81q-72 0 -130 -23 t-94.5 -60t-61 -87t-34.5 -100.5t-11 -104.5z" />
<glyph unicode="A" horiz-adv-x="1380" d="M33 0l592 1442h131l592 -1442h-109l-162 397h-776l-162 -397h-106zM334 479h710l-354 873h-2z" />
<glyph unicode="B" horiz-adv-x="1376" d="M215 0v1434h598q172 0 283.5 -97.5t111.5 -271.5q0 -131 -71 -220t-183 -116q126 -13 217 -107t91 -247q0 -171 -111.5 -273t-284.5 -102h-651zM319 82h535q130 0 218.5 84t88.5 219q0 59 -19 111t-57 96t-103.5 70t-150.5 26h-512v-606zM319 766h496q138 0 216.5 79.5 t78.5 205.5q0 139 -87 220t-212 81h-492v-586z" />
<glyph unicode="C" horiz-adv-x="1384" d="M119 717q0 220 98 387.5t268 255.5t387 88q101 0 211.5 -19.5t194.5 -56.5l-27 -78q-57 25 -157 47.5t-199 22.5q-203 0 -355 -82t-232.5 -228.5t-80.5 -336.5q0 -290 181 -468.5t483 -178.5q100 0 205 21.5t164 45.5l20 -80q-185 -71 -406 -71q-219 0 -390 89t-268 256 t-97 386z" />
<glyph unicode="D" horiz-adv-x="1538" d="M215 0v1434h563q165 0 320 -91q156 -94 235.5 -258t79.5 -366q0 -208 -79 -374t-238 -255q-81 -48 -168.5 -69t-149.5 -21h-563zM319 84h441q90 0 191 39t169 102q89 82 137 212.5t48 281.5q0 177 -65.5 320t-186.5 221q-72 44 -151 67t-140 23h-443v-1266z" />
<glyph unicode="E" horiz-adv-x="1333" d="M215 0v1434h977v-82h-873v-613h752v-82h-752v-575h908v-82h-1012z" />
<glyph unicode="F" horiz-adv-x="1251" d="M215 0v1434h971v-82h-867v-627h744v-82h-744v-643h-104z" />
<glyph unicode="G" horiz-adv-x="1538" d="M119 717q0 219 96.5 386t266 256t384.5 89q252 0 449 -102l-29 -78q-192 96 -403 96q-297 0 -476.5 -178.5t-179.5 -468.5q0 -141 47.5 -261.5t131 -205t201.5 -132.5t255 -48q276 0 459 172v368h-403v78h489v-483q-119 -120 -256.5 -169.5t-300.5 -49.5 q-150 0 -283.5 51.5t-232.5 144.5t-157 232t-58 303z" />
<glyph unicode="H" horiz-adv-x="1544" d="M215 0v1434h104v-676h906v676h104v-1434h-104v676h-906v-676h-104z" />
<glyph unicode="I" horiz-adv-x="534" d="M215 0v1434h104v-1434h-104z" />
<glyph unicode="J" horiz-adv-x="1079" d="M37 233l63 54q41 -92 130.5 -154.5t205.5 -62.5q145 0 242.5 97t97.5 277v990h105v-988q0 -221 -122 -340.5t-319 -119.5q-79 0 -149 23.5t-119.5 61.5t-83 79t-51.5 83z" />
<glyph unicode="K" horiz-adv-x="1366" d="M215 0v1434h104v-861l816 861h125l-512 -541l561 -893h-123l-510 817l-357 -375v-442h-104z" />
<glyph unicode="L" horiz-adv-x="1146" d="M215 0v1434h104v-1352h787v-82h-891z" />
<glyph unicode="M" horiz-adv-x="1867" d="M215 0v1434h145l576 -1151l573 1151h144v-1434h-105v1108l8 197h-4l-569 -1125h-98l-572 1125h-2l8 -197v-1108h-104z" />
<glyph unicode="N" horiz-adv-x="1513" d="M215 0v1434h111l868 -1268v1268h104v-1434h-110l-869 1274v-1274h-104z" />
<glyph unicode="O" d="M102 713q0 335 196.5 535t514.5 200q320 0 515.5 -199.5t195.5 -535.5q0 -333 -195 -530t-516 -197q-157 0 -289 51.5t-225 144.5t-145 229.5t-52 301.5zM211 713q0 -297 166.5 -470t435.5 -173q273 0 437.5 172.5t164.5 470.5q0 300 -165 475.5t-437 175.5 q-177 0 -312.5 -77t-212.5 -225.5t-77 -348.5z" />
<glyph unicode="P" horiz-adv-x="1382" d="M215 0v1434h641q99 0 184.5 -36t142.5 -97t89.5 -141.5t32.5 -168.5q0 -119 -54.5 -219t-158 -160.5t-234.5 -60.5h-541v-551h-102zM319 633h515q167 0 264.5 103.5t97.5 254.5q0 150 -98 255.5t-264 105.5h-515v-719z" />
<glyph unicode="Q" d="M102 713q0 335 196.5 535t514.5 200q320 0 515.5 -199.5t195.5 -535.5q0 -278 -138.5 -463.5t-377.5 -241.5q201 -105 460 -178l-28 -84q-81 18 -246.5 91t-302.5 153q-29 -4 -84 -4q-316 2 -510.5 199.5t-194.5 527.5zM211 713q0 -297 166.5 -470t435.5 -173 q273 0 437.5 172.5t164.5 470.5q0 300 -165 475.5t-437 175.5q-177 0 -312.5 -77t-212.5 -225.5t-77 -348.5z" />
<glyph unicode="R" horiz-adv-x="1404" d="M215 0v1434h672q182 0 296.5 -115t114.5 -285q0 -149 -89 -256.5t-234 -138.5l307 -639h-111l-299 633h-553v-633h-104zM319 715h551q145 0 232.5 91.5t87.5 227.5t-87.5 227t-232.5 91h-551v-637z" />
<glyph unicode="S" horiz-adv-x="1234" d="M113 106l26 80q256 -114 488 -114q197 0 299 74.5t102 209.5q0 58 -25 105t-53.5 75t-96.5 57t-104.5 40t-126.5 36q-7 2 -10 3q-64 17 -103.5 28.5t-97 32t-93 40.5t-76.5 51t-63.5 66t-38 83t-15.5 104q0 177 132.5 274t360.5 97q222 0 453 -98l-29 -80 q-15 9 -61.5 27.5t-151.5 42.5t-206 24q-176 0 -283 -72.5t-107 -206.5q0 -59 25 -106t55 -75.5t95 -57t105 -40.5t124 -36q9 -3 14 -4q65 -17 106.5 -29t98.5 -32.5t92.5 -40.5t75 -50t61.5 -64t37 -80.5t15 -100.5q0 -186 -136.5 -284.5t-371.5 -98.5q-148 0 -288.5 38 t-227.5 82z" />
<glyph unicode="T" horiz-adv-x="1185" d="M29 1352v82h1128v-82h-512v-1352h-104v1352h-512z" />
<glyph unicode="U" horiz-adv-x="1458" d="M188 479v955h105v-961q0 -122 59 -214.5t157.5 -140.5t219.5 -48q187 0 311.5 110t124.5 293v961h105v-955q0 -153 -73 -266.5t-194.5 -170t-273.5 -56.5q-237 0 -389 133t-152 360z" />
<glyph unicode="V" horiz-adv-x="1337" d="M53 1434h113l504 -1319l501 1319h113l-555 -1434h-121z" />
<glyph unicode="W" horiz-adv-x="1974" d="M82 1434h115l229 -803q25 -86 72.5 -262.5t66.5 -243.5h2l365 1284h110l367 -1284h2q20 69 67.5 248t73.5 268l228 793h112l-415 -1434h-127l-363 1255l-360 -1255h-127z" />
<glyph unicode="X" horiz-adv-x="1314" d="M49 1434h127l483 -658l484 658h121l-537 -719l539 -715h-133l-474 639l-479 -639h-125l539 700z" />
<glyph unicode="Y" horiz-adv-x="1245" d="M57 1434h109l457 -766l456 766h109l-512 -852v-582h-105v578z" />
<glyph unicode="Z" horiz-adv-x="1245" d="M76 0v74l954 1280l-461 -2h-465v82h1049v-74l-954 -1282l471 4h483v-82h-1077z" />
<glyph unicode="[" horiz-adv-x="595" d="M199 -377v1825h295v-78h-213v-1667h213v-80h-295z" />
<glyph unicode="\" horiz-adv-x="972" d="M84 1503h84l723 -1573h-84z" />
<glyph unicode="]" horiz-adv-x="595" d="M102 -297h211v1667h-211v78h295v-1825h-295v80z" />
<glyph unicode="_" horiz-adv-x="1136" d="M162 -195h813v-71h-813v71z" />
<glyph unicode="`" horiz-adv-x="557" d="M205 1456h94l100 -301h-75z" />
<glyph unicode="a" horiz-adv-x="1179" d="M86 301q0 326 451 326q57 0 117 -3t95.5 -6t84 -8t59.5 -6v146q0 75 -21.5 125.5t-65.5 77.5t-99.5 37.5t-135.5 10.5q-195 0 -374 -51l-15 74q186 53 404 53q211 0 308 -74t97 -258v-604q0 -65 72 -65q17 0 57 4l6 -72q-75 -12 -100 -12q-66 0 -99.5 34t-33.5 91v78 q-50 -94 -155.5 -152.5t-264.5 -58.5q-179 0 -283 77.5t-104 235.5zM184 307q0 -67 25 -115.5t69.5 -76t99 -40t120.5 -12.5q162 0 278.5 94.5t116.5 233.5v141q-175 23 -348 23q-168 0 -264.5 -59.5t-96.5 -188.5z" />
<glyph unicode="b" horiz-adv-x="1306" d="M178 0v1499h98v-672q22 46 57.5 87.5t87 79.5t126 60.5t160.5 22.5q153 0 266 -72.5t169 -194.5t56 -278q0 -245 -128 -394.5t-365 -149.5q-159 0 -267 72.5t-166 185.5l-10 -246h-84zM274 532q0 -113 35 -204.5t93 -148t130 -86.5t150 -30q194 0 306 127t112 342 t-111 342t-305 127q-78 0 -150.5 -30t-131 -86.5t-93.5 -148t-35 -204.5z" />
<glyph unicode="c" horiz-adv-x="1071" d="M109 532q0 253 156 399t407 146q173 0 305 -57l-23 -68q-144 49 -272 49q-219 0 -347 -126.5t-128 -342.5q0 -217 128.5 -343t354.5 -126q56 0 114 12t84 21t70 27l19 -72q-152 -63 -301 -63q-254 0 -410.5 145.5t-156.5 398.5z" />
<glyph unicode="d" horiz-adv-x="1306" d="M109 532q0 156 56 278t169 194.5t266 72.5q86 0 159.5 -22.5t125 -60.5t87 -79.5t58.5 -87.5v672h98v-1499h-84l-12 246q-56 -112 -164 -185t-266 -73q-237 0 -365 149.5t-128 394.5zM207 532q0 -215 112 -342t306 -127q78 0 149.5 30t129.5 86.5t93 148t35 204.5 t-35 204.5t-93 148t-130.5 86.5t-150.5 30q-194 0 -305 -127t-111 -342z" />
<glyph unicode="e" horiz-adv-x="1214" d="M109 530q0 244 144.5 395.5t387.5 151.5q114 0 205.5 -40.5t149 -111.5t88 -164.5t30.5 -201.5q0 -45 -4 -61h-903q1 -206 130 -320.5t345 -114.5q175 0 354 87l19 -74q-197 -88 -381 -88q-268 0 -416.5 146t-148.5 396zM209 569h811q0 91 -23.5 169t-68.5 137 t-118.5 92.5t-166.5 33.5q-191 0 -306 -114t-128 -318z" />
<glyph unicode="f" horiz-adv-x="669" d="M63 993v72h140v133q0 157 62 235t214 78q74 0 162 -18l-8 -72q-69 15 -133 15q-110 0 -154.5 -59.5t-44.5 -174.5v-137h320v-72h-320v-993h-98v993h-140z" />
<glyph unicode="g" horiz-adv-x="1163" d="M109 -80q0 127 157 227q-112 48 -112 154q0 64 33.5 111t84.5 73q-114 82 -114 256q0 168 113.5 252t320.5 84q100 0 162 -12h321v-68l-205 -2q156 -73 156 -262q0 -156 -108 -240.5t-326 -84.5q-161 0 -258 43q-37 -19 -65.5 -53.5t-28.5 -82.5q0 -35 19.5 -59.5 t49.5 -38.5t78 -22t92 -10.5t105 -2.5h116q186 0 279.5 -54t93.5 -191q0 -71 -28 -124t-73 -84.5t-110.5 -51t-130.5 -26.5t-143 -7q-107 0 -189.5 13.5t-150 43.5t-103.5 85.5t-36 133.5zM205 -72q0 -53 22 -91.5t56 -61t87 -35.5t103.5 -17t116.5 -4q49 0 90 3t87.5 10.5 t81.5 23t64.5 38t45.5 57.5t16 79q0 102 -68 139t-225 37h-90q-145 0 -248 19q-139 -81 -139 -197zM256 741q0 -258 334 -258q338 0 338 258q0 132 -87.5 196t-248.5 64t-248.5 -64t-87.5 -196z" />
<glyph unicode="h" horiz-adv-x="1253" d="M178 0v1499h98v-659q53 110 154.5 173.5t255.5 63.5q195 0 297 -106t102 -309v-662h-98v659q0 165 -83 253.5t-238 88.5q-80 0 -146 -24.5t-110.5 -65t-75.5 -95t-44.5 -113t-13.5 -119.5v-584h-98z" />
<glyph unicode="i" horiz-adv-x="471" d="M59 993v72h228v-1065h-99v993h-129zM166 1331q0 29 18 45.5t49 16.5t48.5 -16.5t17.5 -45.5q0 -59 -66 -59q-31 0 -49 15t-18 44z" />
<glyph unicode="j" horiz-adv-x="475" d="M43 -279h45q69 0 89 28.5t20 103.5v1140h-134v72h232v-1225q0 -100 -39.5 -147t-146.5 -47h-66v75zM168 1331q0 29 18.5 45.5t49.5 16.5t48 -16.5t17 -45.5q0 -59 -65 -59q-31 0 -49.5 15t-18.5 44z" />
<glyph unicode="k" horiz-adv-x="1034" d="M178 0v1499h98v-1036l613 602h110l-409 -406l424 -659h-111l-379 594l-248 -246v-348h-98z" />
<glyph unicode="l" horiz-adv-x="526" d="M180 145v1354h99v-1341q0 -57 20.5 -76t60.5 -19q18 0 39 1.5t34.5 2.5t15.5 1l2 -72q-32 -8 -119 -8q-77 0 -114.5 35t-37.5 122z" />
<glyph unicode="m" horiz-adv-x="1859" d="M178 0v1065h84l4 -191q45 99 138 151t212 52q121 0 212.5 -64.5t123.5 -193.5q94 258 389 258q171 0 262 -103.5t91 -305.5v-668h-99v670q0 168 -76.5 249.5t-211.5 81.5q-104 0 -178.5 -54t-108 -136.5t-33.5 -183.5v-627h-98v686q0 152 -86 233.5t-213 81.5 q-141 0 -227.5 -96.5t-86.5 -253.5v-651h-98z" />
<glyph unicode="n" horiz-adv-x="1249" d="M174 0v1065h84l8 -229q53 111 156.5 176t259.5 65q195 0 297 -106t102 -309v-662h-98v659q0 165 -83 253.5t-238 88.5q-80 0 -146 -24.5t-110.5 -65t-75.5 -95t-44.5 -113t-13.5 -119.5v-584h-98z" />
<glyph unicode="o" horiz-adv-x="1294" d="M109 530q0 250 151 398.5t387 148.5t387.5 -148.5t151.5 -398.5q0 -249 -151.5 -397.5t-387.5 -148.5t-387 148.5t-151 397.5zM207 530q0 -218 123 -344.5t317 -126.5t317 126.5t123 344.5t-123 344.5t-317 126.5t-317 -126.5t-123 -344.5z" />
<glyph unicode="p" horiz-adv-x="1302" d="M174 -348v1413h84l10 -246q58 112 165.5 185t266.5 73t272 -72t167.5 -193.5t54.5 -279.5q0 -156 -56.5 -278t-169 -194t-266.5 -72q-86 0 -160.5 22.5t-126 60.5t-86.5 79.5t-57 87.5v-586h-98zM270 532q0 -113 35 -204.5t93.5 -148t131 -86.5t150.5 -30q194 0 305 127 t111 342t-112 342t-306 127q-78 0 -150 -30t-130 -86.5t-93 -148t-35 -204.5z" />
<glyph unicode="q" horiz-adv-x="1302" d="M109 532q0 245 128 395t365 150q158 0 266 -73.5t164 -184.5l12 246h84v-1413h-98v586q-23 -46 -58.5 -87.5t-87 -79.5t-125 -60.5t-159.5 -22.5q-153 0 -266 72t-169 194t-56 278zM207 532q0 -215 111 -342t305 -127q78 0 150.5 30t130.5 86.5t93 148t35 204.5 t-35 204.5t-93 148t-129.5 86.5t-149.5 30q-194 0 -306 -127t-112 -342z" />
<glyph unicode="r" horiz-adv-x="671" d="M178 0v1065h80l10 -213q37 102 128 166q73 51 166 50q23 0 48 -3l-4 -82q-19 2 -36 2q-79 1 -141 -39q-76 -48 -114.5 -138t-38.5 -206v-602h-98z" />
<glyph unicode="s" horiz-adv-x="970" d="M98 72l21 67q175 -76 368 -76q147 0 225.5 54t78.5 151q0 42 -15.5 74.5t-40 53.5t-65.5 38.5t-81 29.5t-98 27q-19 5 -28 7q-154 42 -208 67q-129 61 -149 177q-4 24 -4 51q0 137 102.5 210.5t280.5 73.5q194 0 353 -63l-17 -68q-46 19 -136 37t-185 18 q-144 0 -221.5 -52t-77.5 -146q0 -42 17.5 -75.5t33.5 -52t67.5 -39.5t71 -27t93.5 -25q26 -7 40 -11q44 -12 64.5 -18t59.5 -18t58 -20.5t49.5 -23.5t46 -29t35.5 -34.5t29 -43t16 -51t7 -61.5q0 -139 -105.5 -212.5t-285.5 -73.5q-212 0 -400 84z" />
<glyph unicode="t" horiz-adv-x="671" d="M51 993v72h162l14 307h84v-307h310v-72h-310v-704q0 -127 37.5 -176.5t140.5 -49.5q56 0 132 21l4 -72q-67 -24 -162 -24q-140 0 -195 68.5t-55 230.5v706h-162z" />
<glyph unicode="u" horiz-adv-x="1243" d="M162 403v662h98v-659q0 -165 83.5 -254t238.5 -89q99 0 176.5 37t122.5 98t67.5 133t22.5 150v584h98v-1065h-84l-10 229q-53 -111 -156 -176t-258 -65q-195 0 -297 106t-102 309z" />
<glyph unicode="v" horiz-adv-x="1064" d="M53 1065h101l378 -981l379 981h101l-422 -1065h-117z" />
<glyph unicode="w" horiz-adv-x="1656" d="M74 1065h100l303 -959l307 928h88l306 -930l305 961h100l-344 -1065h-113l-299 901l-299 -901h-112z" />
<glyph unicode="x" horiz-adv-x="1069" d="M66 0l405 528l-403 537h108l359 -471l362 471h100l-403 -526l410 -539h-109l-360 477l-369 -477h-100z" />
<glyph unicode="y" horiz-adv-x="1155" d="M84 1065h109l397 -963l381 963h100l-455 -1141q-30 -73 -62.5 -125.5t-61.5 -81.5t-64 -45.5t-63.5 -21t-65.5 -4.5q-75 0 -156 16l4 76q97 -17 136 -17q84 0 136.5 54t98.5 170l21 51z" />
<glyph unicode="z" horiz-adv-x="1024" d="M82 0v78l754 917l-316 -2h-424v72h844v-80l-752 -917l318 4h434v-72h-858z" />
<glyph unicode="{" horiz-adv-x="667" d="M88 506v65q150 9 150 156v457q0 134 62.5 199t213.5 65h53v-74h-47q-108 0 -154.5 -44t-46.5 -140v-467q0 -161 -137 -184q137 -23 137 -185v-467q0 -97 46.5 -140.5t154.5 -43.5h47v-76h-53q-151 0 -213.5 65t-62.5 199v459q0 147 -150 156z" />
<glyph unicode="|" horiz-adv-x="473" d="M197 -305v1943h82v-1943h-82z" />
<glyph unicode="}" horiz-adv-x="667" d="M100 -297h50q106 0 152 43t46 141v467q0 162 137 185q-137 23 -137 184v467q0 96 -46 140t-152 44h-50v74h56q150 0 212 -65.5t62 -198.5v-457q0 -147 150 -156v-65q-150 -9 -150 -156v-459q0 -133 -62 -198.5t-212 -65.5h-56v76z" />
<glyph unicode="&#xa1;" horiz-adv-x="493" d="M178 1016q0 28 18 44.5t50 16.5t50.5 -16.5t18.5 -44.5q0 -31 -18.5 -48.5t-50.5 -17.5t-50 17.5t-18 48.5zM195 -379l10 1090h84l10 -1090h-104z" />
<glyph unicode="&#xa2;" horiz-adv-x="1177" d="M104 696q0 238 138.5 381.5t367.5 161.5v168h62v-166q158 -3 295 -57l-19 -68q-144 49 -270 49q-220 0 -347.5 -126.5t-127.5 -342.5t128 -342.5t351 -126.5q129 0 268 58l19 -70q-152 -63 -297 -63v-164h-62v166q-231 18 -368.5 160.5t-137.5 381.5z" />
<glyph unicode="&#xa3;" horiz-adv-x="1230" d="M115 0v72q8 2 20.5 8t45 31t57 58.5t45 96.5t20.5 140q0 118 -27 245h-145v60h129q-37 164 -37 315q0 185 129.5 303.5t339.5 118.5q190 0 334 -98l-39 -70q-130 86 -291 86q-168 0 -269 -97.5t-101 -240.5q0 -70 7 -135.5t12.5 -93.5t19.5 -88h555v-60h-541 q27 -122 27 -237q0 -41 -5.5 -78.5t-13.5 -65t-21.5 -55t-23.5 -43.5t-27 -35t-24.5 -26t-22.5 -20l-16 -13h833v-78h-970z" />
<glyph unicode="&#xa5;" horiz-adv-x="1269" d="M74 1438h110l451 -758l450 758h111l-508 -850v-76h281v-51h-281v-127h281v-51h-281v-283h-104v283h-281v51h281v127h-281v51h281v76z" />
<glyph unicode="&#xa7;" horiz-adv-x="1230" d="M129 578q0 94 61.5 184t124.5 135q-165 83 -165 229q0 312 475 312q209 0 426 -92l-31 -76q-70 30 -176.5 56t-214.5 26q-173 0 -272 -55.5t-99 -172.5q0 -31 11 -58t28 -47t47 -38.5t57.5 -31t70.5 -27t74.5 -23.5t81.5 -23.5t81 -23.5q68 -19 117 -36.5t103.5 -47 t88 -63.5t56 -84.5t22.5 -112.5q0 -93 -61.5 -181.5t-125.5 -138.5q80 -42 123 -96.5t43 -132.5q0 -309 -477 -309q-212 0 -424 90l31 76q67 -29 174.5 -55.5t216.5 -26.5q172 0 271.5 55.5t99.5 171.5q0 36 -13 66t-41.5 53.5t-57.5 40.5t-78 34t-84.5 27.5t-95 27 t-93.5 26.5q-66 20 -113 37.5t-100 47t-85.5 63.5t-54.5 83.5t-22 110.5zM217 590q0 -59 29.5 -106.5t74.5 -78t113.5 -58t130 -44.5t142 -41t133.5 -45q79 63 123.5 136.5t44.5 142.5q0 59 -29.5 106.5t-75 77.5t-114 57.5t-130.5 44.5t-142.5 41t-133.5 45 q-79 -64 -122.5 -137t-43.5 -141z" />
<glyph unicode="&#xa8;" horiz-adv-x="831" d="M162 1272q0 25 15 41t42 16q29 0 45.5 -16t16.5 -41q0 -24 -16.5 -39.5t-45.5 -15.5q-27 0 -42 15.5t-15 39.5zM551 1272q0 25 16 41t43 16q28 0 43 -15.5t15 -41.5q0 -24 -15 -39.5t-43 -15.5q-27 0 -43 15.5t-16 39.5z" />
<glyph unicode="&#xa9;" horiz-adv-x="1701" d="M131 723q0 205 95 371t260 259t366 93q202 0 367.5 -93t260.5 -259t95 -371q0 -152 -56.5 -287t-153.5 -230.5t-230.5 -150.5t-282.5 -55q-148 0 -281.5 55t-230 150.5t-153 230.5t-56.5 287zM180 723q0 -190 89.5 -344.5t243.5 -241t341 -86.5t341 86.5t243.5 241 t89.5 344.5q0 189 -90 344t-244.5 242.5t-339.5 87.5t-339.5 -87.5t-244.5 -242.5t-90 -344zM528 727q0 165 101.5 259.5t263.5 94.5q113 0 199 -39l-15 -53q-83 33 -174 33q-140 0 -219.5 -80t-79.5 -215q0 -136 79 -215.5t222 -79.5q81 0 174 37l15 -55q-93 -41 -199 -41 q-163 0 -265 95t-102 259z" />
<glyph unicode="&#xaa;" horiz-adv-x="1005" d="M170 967q0 219 319 219q95 0 199 -17v68q0 101 -44 148t-163 47q-127 0 -239 -39l-15 59q131 43 271 43q136 0 199 -56.5t63 -178.5v-404q0 -24 9.5 -32.5t27.5 -8.5q27 0 39 4v-57q-40 -10 -70 -10q-71 0 -74 77v52q-34 -61 -105 -97t-159 -36q-111 0 -184.5 54 t-73.5 165zM174 479v64h655v-64h-655zM242 969q0 -81 55.5 -122.5t142.5 -41.5q105 0 175.5 61.5t70.5 151.5v98q-108 19 -186 19q-258 0 -258 -166z" />
<glyph unicode="&#xab;" horiz-adv-x="1126" d="M115 522v21l405 458l55 -53l-344 -416l344 -415l-55 -54zM535 522v21l405 458l55 -53l-344 -416l344 -415l-55 -54z" />
<glyph unicode="&#xad;" horiz-adv-x="1050" d="M162 516v78h725v-78h-725z" />
<glyph unicode="&#xae;" horiz-adv-x="1249" d="M164 1040q0 198 131.5 329.5t329.5 131.5t329 -131.5t131 -329.5q0 -196 -131.5 -327t-328.5 -131q-198 0 -329.5 131.5t-131.5 326.5zM205 1040q0 -179 119.5 -300.5t300.5 -121.5t300 121.5t119 300.5q0 180 -119 302t-300 122q-182 0 -301 -122t-119 -302zM463 813 v471h215q58 0 97.5 -40t39.5 -99q0 -50 -26 -85.5t-68 -47.5l88 -199h-51l-80 193h-170v-193h-45zM508 1044h168q41 0 68.5 29.5t27.5 71.5q0 46 -27 73t-71 27h-166v-201z" />
<glyph unicode="&#xaf;" horiz-adv-x="937" d="M172 1262v65h594v-65h-594z" />
<glyph unicode="&#xb0;" horiz-adv-x="620" d="M41 1198q0 119 77 188.5t193 69.5q117 0 193 -70t76 -190q0 -119 -76 -189.5t-193 -70.5t-193.5 71t-76.5 191zM115 1196q0 -93 57.5 -148t136.5 -55q81 0 139 56.5t58 148.5q0 91 -58 146t-137 55q-81 0 -138.5 -55t-57.5 -148z" />
<glyph unicode="&#xb1;" horiz-adv-x="1017" d="M82 190v68h852v-68h-852zM82 702v74h387v330h74v-330h391v-74h-391v-325h-74v325h-387z" />
<glyph unicode="&#xb4;" horiz-adv-x="524" d="M162 1155l125 303h94l-145 -303h-74z" />
<glyph unicode="&#xb5;" horiz-adv-x="1257" d="M195 -352v1417h98v-625q0 -173 89.5 -275t268.5 -102q148 0 251.5 111.5t103.5 255.5v635h98v-1065h-72l-14 236q-43 -109 -146.5 -179.5t-222.5 -70.5q-129 0 -222 52t-134 150v-540h-98z" />
<glyph unicode="&#xb6;" horiz-adv-x="1085" d="M92 1042q0 177 106.5 286.5t264.5 109.5h403v-1616h-78v1542h-198v-1542h-78v811h-70q-166 6 -258 123t-92 286z" />
<glyph unicode="&#xb7;" horiz-adv-x="489" d="M158 612q0 36 24 61t62 25t62 -25t24 -61q0 -37 -24 -62.5t-62 -25.5t-62 25.5t-24 62.5z" />
<glyph unicode="&#xb8;" horiz-adv-x="641" d="M156 -367l10 56q65 -25 127 -25q45 0 80 16.5t35 57.5q0 87 -146 67l-22 35l53 164h65l-45 -141q28 2 53 -1t54.5 -13.5t47 -38t17.5 -70.5q0 -135 -184 -135q-75 0 -145 28z" />
<glyph unicode="&#xba;" horiz-adv-x="1116" d="M176 1118q0 170 104.5 273.5t278.5 103.5q173 0 277 -104t104 -273q0 -166 -105 -268t-276 -102q-173 0 -278 102t-105 268zM180 479v64h756v-64h-756zM254 1122q0 -138 81 -223.5t224 -85.5t223 85.5t80 223.5q0 137 -81.5 222.5t-221.5 85.5t-222.5 -85.5t-82.5 -222.5 z" />
<glyph unicode="&#xbb;" horiz-adv-x="1126" d="M131 117l344 415l-344 416l53 53l408 -458v-21l-406 -459zM551 117l344 415l-344 416l53 53l408 -458v-21l-406 -459z" />
<glyph unicode="&#xbf;" horiz-adv-x="970" d="M104 -53q0 66 22 121t57.5 93t78.5 71.5t86 65.5t78.5 67t57.5 83.5t22 106.5v156h84v-158q0 -64 -21.5 -117.5t-56 -91t-76 -71t-82.5 -66.5t-75.5 -67.5t-56 -83t-21.5 -105.5q0 -85 47 -143.5t116.5 -83.5t153.5 -25q159 0 311 92l31 -74q-149 -102 -346 -102 q-64 0 -122.5 11.5t-111.5 37.5t-91.5 64t-61.5 94t-23 125zM479 1014q0 63 68 63q69 0 69 -63q0 -30 -18 -48t-51 -18t-50.5 18t-17.5 48z" />
<glyph unicode="&#xc0;" horiz-adv-x="1380" d="M33 0l592 1442h131l592 -1442h-109l-162 397h-776l-162 -397h-106zM334 479h710l-354 873h-2zM561 1745h94l101 -221h-76z" />
<glyph unicode="&#xc1;" horiz-adv-x="1380" d="M33 0l592 1442h131l592 -1442h-109l-162 397h-776l-162 -397h-106zM334 479h710l-354 873h-2zM659 1524l125 225h95l-146 -225h-74z" />
<glyph unicode="&#xc2;" horiz-adv-x="1380" d="M33 0l592 1442h131l592 -1442h-109l-162 397h-776l-162 -397h-106zM334 479h710l-354 873h-2zM428 1524l217 225h92l217 -225h-100l-162 176l-164 -176h-100z" />
<glyph unicode="&#xc3;" horiz-adv-x="1380" d="M33 0l592 1442h131l592 -1442h-109l-162 397h-776l-162 -397h-106zM334 479h710l-354 873h-2zM406 1620q43 125 155 125q49 0 137 -41q80 -41 127 -41q67 0 103 70l43 -19q-46 -125 -158 -125q-14 0 -28 2t-29.5 7.5t-24.5 9t-28 11.5t-25 11t-23.5 11t-26.5 11.5 t-23.5 9t-27.5 7.5t-26 2q-68 0 -102 -67z" />
<glyph unicode="&#xc4;" horiz-adv-x="1380" d="M33 0l592 1442h131l592 -1442h-109l-162 397h-776l-162 -397h-106zM334 479h710l-354 873h-2zM434 1640q0 25 15.5 41.5t42.5 16.5q28 0 44.5 -16t16.5 -42q0 -24 -16.5 -39.5t-44.5 -15.5q-27 0 -42.5 15.5t-15.5 39.5zM823 1640q0 25 16.5 41.5t43.5 16.5 q28 0 42.5 -16t14.5 -42q0 -25 -14.5 -40t-42.5 -15q-27 0 -43.5 15.5t-16.5 39.5z" />
<glyph unicode="&#xc5;" horiz-adv-x="1380" d="M33 0l592 1442h131l592 -1442h-109l-162 397h-776l-162 -397h-106zM334 479h710l-354 873h-2zM508 1700q0 79 50.5 123.5t129.5 44.5q78 0 129 -44.5t51 -123.5t-51 -124.5t-129 -45.5q-79 0 -129.5 45t-50.5 125zM578 1700q0 -55 32.5 -86t77.5 -31t78 31t33 86 q0 56 -32.5 85.5t-78.5 29.5q-45 0 -77.5 -29.5t-32.5 -85.5z" />
<glyph unicode="&#xc6;" horiz-adv-x="2078" d="M16 0l877 1434h1051v-82h-873v-613h752v-82h-752v-575h905v-82h-1009v422h-584l-260 -422h-107zM432 504h535v848h-11z" />
<glyph unicode="&#xc7;" horiz-adv-x="1384" d="M119 717q0 220 98 387.5t268 255.5t387 88q101 0 211.5 -19.5t194.5 -56.5l-27 -78q-57 25 -157 47.5t-199 22.5q-203 0 -355 -82t-232.5 -228.5t-80.5 -336.5q0 -290 181 -468.5t483 -178.5q100 0 205 21.5t164 45.5l20 -80q-185 -71 -406 -71q-5 0 -14 1t-14 1 l-39 -125q28 2 53 -1t54.5 -13.5t47 -38t17.5 -70.5q0 -135 -184 -135q-76 0 -146 28l10 56q65 -25 127 -25q45 0 80 16.5t35 57.5q0 87 -145 67l-23 35l49 152q-299 27 -481 222t-182 503z" />
<glyph unicode="&#xc8;" horiz-adv-x="1333" d="M215 0v1434h977v-82h-873v-613h752v-82h-752v-575h908v-82h-1012zM590 1745h94l100 -221h-75z" />
<glyph unicode="&#xc9;" horiz-adv-x="1333" d="M215 0v1434h977v-82h-873v-613h752v-82h-752v-575h908v-82h-1012zM647 1524l125 225h94l-145 -225h-74z" />
<glyph unicode="&#xca;" horiz-adv-x="1333" d="M215 0v1434h977v-82h-873v-613h752v-82h-752v-575h908v-82h-1012zM457 1524l217 225h92l217 -225h-100l-162 176l-164 -176h-100z" />
<glyph unicode="&#xcb;" horiz-adv-x="1333" d="M215 0v1434h977v-82h-873v-613h752v-82h-752v-575h908v-82h-1012zM463 1640q0 26 15 42t42 16q29 0 45.5 -16.5t16.5 -41.5q0 -24 -16.5 -39.5t-45.5 -15.5q-27 0 -42 15.5t-15 39.5zM852 1640q0 25 16 41.5t43 16.5q28 0 43 -16t15 -42q0 -24 -15 -39.5t-43 -15.5 q-27 0 -43 15.5t-16 39.5z" />
<glyph unicode="&#xcc;" horiz-adv-x="534" d="M141 1745h95l100 -221h-76zM215 0v1434h104v-1434h-104z" />
<glyph unicode="&#xcd;" horiz-adv-x="534" d="M215 0v1434h104v-1434h-104zM240 1524l125 225h94l-146 -225h-73z" />
<glyph unicode="&#xce;" horiz-adv-x="534" d="M8 1524l217 225h92l218 -225h-101l-162 176l-163 -176h-101zM215 0v1434h104v-1434h-104z" />
<glyph unicode="&#xcf;" horiz-adv-x="534" d="M14 1640q0 25 15.5 41.5t42.5 16.5q28 0 44.5 -16t16.5 -42q0 -24 -16.5 -39.5t-44.5 -15.5q-27 0 -42.5 15.5t-15.5 39.5zM215 0v1434h104v-1434h-104zM403 1640q0 25 16.5 41.5t43.5 16.5q28 0 42.5 -16t14.5 -42q0 -25 -14.5 -40t-42.5 -15q-27 0 -43.5 15.5 t-16.5 39.5z" />
<glyph unicode="&#xd0;" horiz-adv-x="1538" d="M27 668v65h188v701h563q165 0 320 -91q156 -94 235.5 -258t79.5 -366q0 -208 -79 -374t-238 -255q-81 -48 -168.5 -69t-149.5 -21h-563v668h-188zM319 84h441q90 0 191 39t169 102q89 82 137 212.5t48 281.5q0 177 -65.5 320t-186.5 221q-72 44 -151 67t-140 23h-443 v-617h361v-65h-361v-584z" />
<glyph unicode="&#xd1;" horiz-adv-x="1513" d="M215 0v1434h111l868 -1268v1268h104v-1434h-110l-869 1274v-1274h-104zM498 1620q43 125 155 125q50 0 138 -41q80 -41 127 -41q66 0 102 70l43 -19q-46 -125 -158 -125q-14 0 -28 2t-29.5 7.5t-24.5 9t-28 11.5t-25 11t-23.5 11t-26.5 11.5t-23.5 9t-27.5 7.5t-26 2 q-68 0 -102 -67z" />
<glyph unicode="&#xd2;" d="M102 713q0 335 196.5 535t514.5 200q320 0 515.5 -199.5t195.5 -535.5q0 -333 -195 -530t-516 -197q-157 0 -289 51.5t-225 144.5t-145 229.5t-52 301.5zM211 713q0 -297 166.5 -470t435.5 -173q273 0 437.5 172.5t164.5 470.5q0 300 -165 475.5t-437 175.5 q-177 0 -312.5 -77t-212.5 -225.5t-77 -348.5zM719 1745h94l100 -221h-75z" />
<glyph unicode="&#xd3;" d="M102 713q0 335 196.5 535t514.5 200q320 0 515.5 -199.5t195.5 -535.5q0 -333 -195 -530t-516 -197q-157 0 -289 51.5t-225 144.5t-145 229.5t-52 301.5zM211 713q0 -297 166.5 -470t435.5 -173q273 0 437.5 172.5t164.5 470.5q0 300 -165 475.5t-437 175.5 q-177 0 -312.5 -77t-212.5 -225.5t-77 -348.5zM739 1524l125 225h94l-145 -225h-74z" />
<glyph unicode="&#xd4;" d="M102 713q0 335 196.5 535t514.5 200q320 0 515.5 -199.5t195.5 -535.5q0 -333 -195 -530t-516 -197q-157 0 -289 51.5t-225 144.5t-145 229.5t-52 301.5zM211 713q0 -297 166.5 -470t435.5 -173q273 0 437.5 172.5t164.5 470.5q0 300 -165 475.5t-437 175.5 q-177 0 -312.5 -77t-212.5 -225.5t-77 -348.5zM553 1524l217 225h92l217 -225h-100l-162 176l-164 -176h-100z" />
<glyph unicode="&#xd5;" d="M102 713q0 335 196.5 535t514.5 200q320 0 515.5 -199.5t195.5 -535.5q0 -333 -195 -530t-516 -197q-157 0 -289 51.5t-225 144.5t-145 229.5t-52 301.5zM211 713q0 -297 166.5 -470t435.5 -173q273 0 437.5 172.5t164.5 470.5q0 300 -165 475.5t-437 175.5 q-177 0 -312.5 -77t-212.5 -225.5t-77 -348.5zM535 1620q43 125 155 125q49 0 137 -41q80 -41 127 -41q67 0 103 70l43 -19q-46 -125 -158 -125q-14 0 -28 2t-29.5 7.5t-24.5 9t-28 11.5t-25 11t-23.5 11t-26.5 11.5t-23.5 9t-27.5 7.5t-26 2q-68 0 -102 -67z" />
<glyph unicode="&#xd6;" d="M102 713q0 335 196.5 535t514.5 200q320 0 515.5 -199.5t195.5 -535.5q0 -333 -195 -530t-516 -197q-157 0 -289 51.5t-225 144.5t-145 229.5t-52 301.5zM211 713q0 -297 166.5 -470t435.5 -173q273 0 437.5 172.5t164.5 470.5q0 300 -165 475.5t-437 175.5 q-177 0 -312.5 -77t-212.5 -225.5t-77 -348.5zM559 1640q0 26 15 42t42 16q29 0 45.5 -16.5t16.5 -41.5q0 -24 -16.5 -39.5t-45.5 -15.5q-27 0 -42 15.5t-15 39.5zM948 1640q0 25 16.5 41.5t43.5 16.5q28 0 42.5 -16t14.5 -42q0 -25 -14.5 -40t-42.5 -15q-27 0 -43.5 15.5 t-16.5 39.5z" />
<glyph unicode="&#xd7;" horiz-adv-x="991" d="M111 346l331 334l-331 336l51 53l332 -336l333 336l54 -53l-334 -336l334 -334l-54 -53l-333 334l-332 -334z" />
<glyph unicode="&#xd8;" d="M102 713q0 335 196.5 535t514.5 200q211 0 373 -92l90 137h72l-109 -170q136 -95 210.5 -251.5t74.5 -358.5q0 -333 -195 -530t-516 -197q-214 0 -379 92l-88 -137h-72l109 170q-134 94 -207.5 248t-73.5 354zM211 713q0 -172 58.5 -306t164.5 -217l703 1090 q-143 84 -324 84q-177 0 -312.5 -77t-212.5 -225.5t-77 -348.5zM483 156q139 -86 330 -86q273 0 437.5 172.5t164.5 470.5q0 176 -59 311.5t-168 220.5z" />
<glyph unicode="&#xd9;" horiz-adv-x="1458" d="M188 479v955h105v-961q0 -122 59 -214.5t157.5 -140.5t219.5 -48q187 0 311.5 110t124.5 293v961h105v-955q0 -153 -73 -266.5t-194.5 -170t-273.5 -56.5q-237 0 -389 133t-152 360zM602 1745h94l101 -221h-76z" />
<glyph unicode="&#xda;" horiz-adv-x="1458" d="M188 479v955h105v-961q0 -122 59 -214.5t157.5 -140.5t219.5 -48q187 0 311.5 110t124.5 293v961h105v-955q0 -153 -73 -266.5t-194.5 -170t-273.5 -56.5q-237 0 -389 133t-152 360zM700 1524l125 225h95l-146 -225h-74z" />
<glyph unicode="&#xdb;" horiz-adv-x="1458" d="M188 479v955h105v-961q0 -122 59 -214.5t157.5 -140.5t219.5 -48q187 0 311.5 110t124.5 293v961h105v-955q0 -153 -73 -266.5t-194.5 -170t-273.5 -56.5q-237 0 -389 133t-152 360zM469 1524l217 225h92l217 -225h-100l-162 176l-164 -176h-100z" />
<glyph unicode="&#xdc;" horiz-adv-x="1458" d="M188 479v955h105v-961q0 -122 59 -214.5t157.5 -140.5t219.5 -48q187 0 311.5 110t124.5 293v961h105v-955q0 -153 -73 -266.5t-194.5 -170t-273.5 -56.5q-237 0 -389 133t-152 360zM475 1640q0 26 15 42t42 16q29 0 45.5 -16.5t16.5 -41.5q0 -24 -16.5 -39.5 t-45.5 -15.5q-27 0 -42 15.5t-15 39.5zM864 1640q0 25 16.5 41.5t43.5 16.5q28 0 42.5 -16t14.5 -42q0 -25 -14.5 -40t-42.5 -15q-27 0 -43.5 15.5t-16.5 39.5z" />
<glyph unicode="&#xdd;" horiz-adv-x="1245" d="M57 1434h109l457 -766l456 766h109l-512 -852v-582h-105v578zM596 1524l125 225h94l-145 -225h-74z" />
<glyph unicode="&#xde;" horiz-adv-x="1368" d="M215 0v1434h104v-285h570q182 0 291.5 -122t109.5 -300q0 -177 -109.5 -299.5t-289.5 -122.5h-572v-305h-104zM319 387h555q138 0 223 97t85 243t-85 243t-223 97h-555v-680z" />
<glyph unicode="&#xdf;" horiz-adv-x="1191" d="M178 0v1036q0 99 27.5 174.5t69.5 119.5t99 71.5t108.5 37t105.5 9.5q157 0 256.5 -81t99.5 -218q0 -54 -16.5 -99.5t-40 -76t-47 -59t-40 -63t-16.5 -73.5q0 -51 19 -92t48.5 -70t66 -55.5t73 -56t66 -63t48.5 -85t19 -114.5q0 -139 -88.5 -218t-263.5 -79 q-85 0 -169.5 16.5t-133.5 34.5l12 78q31 -15 112.5 -34.5t162.5 -19.5q134 0 202 60t68 168q0 56 -18.5 101t-48 75.5t-65 57.5t-71 53.5t-65 56.5t-48 74t-18.5 98q0 43 16 82t39 69.5t46 61.5t39 73.5t16 90.5q0 114 -71.5 172.5t-186.5 58.5q-37 0 -74 -6.5t-82 -28.5 t-78.5 -56.5t-56.5 -98t-23 -146.5v-1036h-98z" />
<glyph unicode="&#xe0;" horiz-adv-x="1179" d="M86 301q0 326 451 326q57 0 117 -3t95.5 -6t84 -8t59.5 -6v146q0 75 -21.5 125.5t-65.5 77.5t-99.5 37.5t-135.5 10.5q-195 0 -374 -51l-15 74q186 53 404 53q211 0 308 -74t97 -258v-604q0 -65 72 -65q17 0 57 4l6 -72q-75 -12 -100 -12q-66 0 -99.5 34t-33.5 91v78 q-50 -94 -155.5 -152.5t-264.5 -58.5q-179 0 -283 77.5t-104 235.5zM184 307q0 -67 25 -115.5t69.5 -76t99 -40t120.5 -12.5q162 0 278.5 94.5t116.5 233.5v141q-175 23 -348 23q-168 0 -264.5 -59.5t-96.5 -188.5zM485 1495h95l100 -301h-76z" />
<glyph unicode="&#xe1;" horiz-adv-x="1179" d="M86 301q0 326 451 326q57 0 117 -3t95.5 -6t84 -8t59.5 -6v146q0 75 -21.5 125.5t-65.5 77.5t-99.5 37.5t-135.5 10.5q-195 0 -374 -51l-15 74q186 53 404 53q211 0 308 -74t97 -258v-604q0 -65 72 -65q17 0 57 4l6 -72q-75 -12 -100 -12q-66 0 -99.5 34t-33.5 91v78 q-50 -94 -155.5 -152.5t-264.5 -58.5q-179 0 -283 77.5t-104 235.5zM184 307q0 -67 25 -115.5t69.5 -76t99 -40t120.5 -12.5q162 0 278.5 94.5t116.5 233.5v141q-175 23 -348 23q-168 0 -264.5 -59.5t-96.5 -188.5zM565 1194l125 303h94l-145 -303h-74z" />
<glyph unicode="&#xe2;" horiz-adv-x="1179" d="M86 301q0 326 451 326q57 0 117 -3t95.5 -6t84 -8t59.5 -6v146q0 75 -21.5 125.5t-65.5 77.5t-99.5 37.5t-135.5 10.5q-195 0 -374 -51l-15 74q186 53 404 53q211 0 308 -74t97 -258v-604q0 -65 72 -65q17 0 57 4l6 -72q-75 -12 -100 -12q-66 0 -99.5 34t-33.5 91v78 q-50 -94 -155.5 -152.5t-264.5 -58.5q-179 0 -283 77.5t-104 235.5zM184 307q0 -67 25 -115.5t69.5 -76t99 -40t120.5 -12.5q162 0 278.5 94.5t116.5 233.5v141q-175 23 -348 23q-168 0 -264.5 -59.5t-96.5 -188.5zM346 1194l217 305h92l217 -305h-96l-166 252l-168 -252 h-96z" />
<glyph unicode="&#xe3;" horiz-adv-x="1179" d="M86 301q0 326 451 326q57 0 117 -3t95.5 -6t84 -8t59.5 -6v146q0 75 -21.5 125.5t-65.5 77.5t-99.5 37.5t-135.5 10.5q-195 0 -374 -51l-15 74q186 53 404 53q211 0 308 -74t97 -258v-604q0 -65 72 -65q17 0 57 4l6 -72q-75 -12 -100 -12q-66 0 -99.5 34t-33.5 91v78 q-50 -94 -155.5 -152.5t-264.5 -58.5q-179 0 -283 77.5t-104 235.5zM184 307q0 -67 25 -115.5t69.5 -76t99 -40t120.5 -12.5q162 0 278.5 94.5t116.5 233.5v141q-175 23 -348 23q-168 0 -264.5 -59.5t-96.5 -188.5zM319 1290q43 125 156 125q49 0 137 -41q80 -41 127 -41 q67 0 103 70l43 -19q-46 -124 -158 -124q-14 0 -27.5 2t-30.5 7.5t-23.5 8t-29 12t-24.5 10.5q-6 3 -23.5 11t-26.5 11.5t-23.5 9t-27.5 7.5t-26 2q-69 0 -103 -67z" />
<glyph unicode="&#xe4;" horiz-adv-x="1179" d="M86 301q0 326 451 326q57 0 117 -3t95.5 -6t84 -8t59.5 -6v146q0 75 -21.5 125.5t-65.5 77.5t-99.5 37.5t-135.5 10.5q-195 0 -374 -51l-15 74q186 53 404 53q211 0 308 -74t97 -258v-604q0 -65 72 -65q17 0 57 4l6 -72q-75 -12 -100 -12q-66 0 -99.5 34t-33.5 91v78 q-50 -94 -155.5 -152.5t-264.5 -58.5q-179 0 -283 77.5t-104 235.5zM184 307q0 -67 25 -115.5t69.5 -76t99 -40t120.5 -12.5q162 0 278.5 94.5t116.5 233.5v141q-175 23 -348 23q-168 0 -264.5 -59.5t-96.5 -188.5zM350 1311q0 25 15.5 41t42.5 16q29 0 45 -16t16 -41 q0 -24 -16.5 -40t-44.5 -16q-27 0 -42.5 16t-15.5 40zM739 1311q0 25 16.5 41t43.5 16q28 0 42.5 -15.5t14.5 -41.5q0 -25 -14.5 -40.5t-42.5 -15.5q-27 0 -43.5 16t-16.5 40z" />
<glyph unicode="&#xe5;" horiz-adv-x="1179" d="M86 301q0 326 451 326q57 0 117 -3t95.5 -6t84 -8t59.5 -6v146q0 75 -21.5 125.5t-65.5 77.5t-99.5 37.5t-135.5 10.5q-195 0 -374 -51l-15 74q186 53 404 53q211 0 308 -74t97 -258v-604q0 -65 72 -65q17 0 57 4l6 -72q-75 -12 -100 -12q-66 0 -99.5 34t-33.5 91v78 q-50 -94 -155.5 -152.5t-264.5 -58.5q-179 0 -283 77.5t-104 235.5zM184 307q0 -67 25 -115.5t69.5 -76t99 -40t120.5 -12.5q162 0 278.5 94.5t116.5 233.5v141q-175 23 -348 23q-168 0 -264.5 -59.5t-96.5 -188.5zM436 1370q0 79 50.5 123.5t129.5 44.5q78 0 129.5 -44.5 t51.5 -123.5t-51.5 -124.5t-129.5 -45.5q-79 0 -129.5 45t-50.5 125zM506 1370q0 -55 32.5 -86t77.5 -31t78 31t33 86q0 56 -32.5 85.5t-78.5 29.5q-45 0 -77.5 -29.5t-32.5 -85.5z" />
<glyph unicode="&#xe6;" horiz-adv-x="1929" d="M86 301q0 326 451 326q115 0 290 -15q12 110 62 203q-18 106 -96 146t-222 40q-195 0 -374 -51l-15 74q186 53 404 53q152 0 243.5 -36.5t131.5 -122.5q146 159 395 159q114 0 205.5 -40.5t149 -111.5t88 -164.5t30.5 -201.5q0 -45 -4 -61h-903q1 -206 130.5 -320.5 t344.5 -114.5q175 0 354 87l18 -74q-197 -88 -380 -88q-166 0 -289 58.5t-193 164.5q-52 -97 -161.5 -160t-272.5 -63q-179 0 -283 77.5t-104 235.5zM184 307q0 -67 25 -115.5t69.5 -76t99 -40t120.5 -12.5q126 0 228.5 61t143.5 159q-47 113 -47 247v11q-159 14 -278 14 q-168 0 -264.5 -59.5t-96.5 -188.5zM924 569h811q0 91 -23.5 169t-68.5 137t-118.5 92.5t-166.5 33.5q-191 0 -306 -114t-128 -318z" />
<glyph unicode="&#xe7;" horiz-adv-x="1071" d="M109 532q0 253 156 399t407 146q173 0 305 -57l-23 -68q-144 49 -272 49q-219 0 -347 -126.5t-128 -342.5q0 -217 128.5 -343t354.5 -126q56 0 114 12t84 21t70 27l19 -72q-152 -63 -301 -63h-19l-39 -125q28 2 53 -1t54.5 -13.5t47.5 -38t18 -70.5q0 -135 -185 -135 q-75 0 -145 28l10 56q65 -25 127 -25q45 0 80 16.5t35 57.5q0 87 -146 67l-22 35l49 152q-221 24 -353 166t-132 374z" />
<glyph unicode="&#xe8;" horiz-adv-x="1214" d="M109 530q0 244 144.5 395.5t387.5 151.5q114 0 205.5 -40.5t149 -111.5t88 -164.5t30.5 -201.5q0 -45 -4 -61h-903q1 -206 130 -320.5t345 -114.5q175 0 354 87l19 -74q-197 -88 -381 -88q-268 0 -416.5 146t-148.5 396zM209 569h811q0 91 -23.5 169t-68.5 137 t-118.5 92.5t-166.5 33.5q-191 0 -306 -114t-128 -318zM530 1495h95l100 -301h-76z" />
<glyph unicode="&#xe9;" horiz-adv-x="1214" d="M109 530q0 244 144.5 395.5t387.5 151.5q114 0 205.5 -40.5t149 -111.5t88 -164.5t30.5 -201.5q0 -45 -4 -61h-903q1 -206 130 -320.5t345 -114.5q175 0 354 87l19 -74q-197 -88 -381 -88q-268 0 -416.5 146t-148.5 396zM209 569h811q0 91 -23.5 169t-68.5 137 t-118.5 92.5t-166.5 33.5q-191 0 -306 -114t-128 -318zM528 1194l125 303h95l-146 -303h-74z" />
<glyph unicode="&#xea;" horiz-adv-x="1214" d="M109 530q0 244 144.5 395.5t387.5 151.5q114 0 205.5 -40.5t149 -111.5t88 -164.5t30.5 -201.5q0 -45 -4 -61h-903q1 -206 130 -320.5t345 -114.5q175 0 354 87l19 -74q-197 -88 -381 -88q-268 0 -416.5 146t-148.5 396zM209 569h811q0 91 -23.5 169t-68.5 137 t-118.5 92.5t-166.5 33.5q-191 0 -306 -114t-128 -318zM362 1194l218 305h92l217 -305h-96l-166 252l-168 -252h-97z" />
<glyph unicode="&#xeb;" horiz-adv-x="1214" d="M109 530q0 244 144.5 395.5t387.5 151.5q114 0 205.5 -40.5t149 -111.5t88 -164.5t30.5 -201.5q0 -45 -4 -61h-903q1 -206 130 -320.5t345 -114.5q175 0 354 87l19 -74q-197 -88 -381 -88q-268 0 -416.5 146t-148.5 396zM209 569h811q0 91 -23.5 169t-68.5 137 t-118.5 92.5t-166.5 33.5q-191 0 -306 -114t-128 -318zM381 1311q0 25 15 41t42 16q29 0 45.5 -16t16.5 -41q0 -24 -17 -40t-45 -16q-27 0 -42 16t-15 40zM770 1311q0 25 16 41t43 16q28 0 43 -15.5t15 -41.5q0 -25 -15 -40.5t-43 -15.5q-27 0 -43 16t-16 40z" />
<glyph unicode="&#xec;" horiz-adv-x="462" d="M63 993v72h228v-1065h-98v993h-130zM94 1495h94l101 -301h-76z" />
<glyph unicode="&#xed;" horiz-adv-x="462" d="M63 993v72h228v-1065h-98v993h-130zM193 1194l124 303h95l-146 -303h-73z" />
<glyph unicode="&#xee;" horiz-adv-x="462" d="M-41 1194l217 305h92l217 -305h-96l-166 252l-168 -252h-96zM63 993v72h228v-1065h-98v993h-130z" />
<glyph unicode="&#xef;" horiz-adv-x="462" d="M-33 1311q0 25 15.5 41t42.5 16q29 0 45 -16t16 -41q0 -24 -16.5 -40t-44.5 -16q-27 0 -42.5 16t-15.5 40zM63 993v72h228v-1065h-98v993h-130zM356 1311q0 25 16.5 41t43.5 16q28 0 42.5 -15.5t14.5 -41.5q0 -25 -14.5 -40.5t-42.5 -15.5q-27 0 -43.5 16t-16.5 40z" />
<glyph unicode="&#xf0;" horiz-adv-x="1230" d="M121 487q0 230 134.5 361t338.5 131q154 0 260.5 -64.5t157.5 -160.5q-26 208 -133 379q-64 103 -168 204l-211 -141l-25 35l201 135q-119 104 -268 182l65 39q147 -73 266 -178l185 125l24 -37l-176 -119q159 -149 250.5 -349.5t91.5 -444.5q0 -303 -133.5 -449.5 t-370.5 -146.5q-231 0 -360 137t-129 362zM221 487q0 -188 102.5 -306t286.5 -118t289 115.5t105 310.5q0 193 -106 303.5t-288 110.5q-178 0 -283.5 -113.5t-105.5 -302.5z" />
<glyph unicode="&#xf1;" horiz-adv-x="1249" d="M174 0v1065h84l8 -229q53 111 156.5 176t259.5 65q195 0 297 -106t102 -309v-662h-98v659q0 165 -83 253.5t-238 88.5q-80 0 -146 -24.5t-110.5 -65t-75.5 -95t-44.5 -113t-13.5 -119.5v-584h-98zM350 1290q43 125 156 125q49 0 137 -41q80 -41 127 -41q66 0 102 70 l43 -19q-46 -124 -157 -124q-14 0 -27.5 2t-30.5 7.5t-23.5 8t-29 12t-24.5 10.5q-6 3 -23.5 11t-26.5 11.5t-23.5 9t-27.5 7.5t-26 2q-69 0 -103 -67z" />
<glyph unicode="&#xf2;" horiz-adv-x="1294" d="M109 530q0 250 151 398.5t387 148.5t387.5 -148.5t151.5 -398.5q0 -249 -151.5 -397.5t-387.5 -148.5t-387 148.5t-151 397.5zM207 530q0 -218 123 -344.5t317 -126.5t317 126.5t123 344.5t-123 344.5t-317 126.5t-317 -126.5t-123 -344.5zM526 1495h95l100 -301h-76z " />
<glyph unicode="&#xf3;" horiz-adv-x="1294" d="M109 530q0 250 151 398.5t387 148.5t387.5 -148.5t151.5 -398.5q0 -249 -151.5 -397.5t-387.5 -148.5t-387 148.5t-151 397.5zM207 530q0 -218 123 -344.5t317 -126.5t317 126.5t123 344.5t-123 344.5t-317 126.5t-317 -126.5t-123 -344.5zM535 1194l124 303h95 l-146 -303h-73z" />
<glyph unicode="&#xf4;" horiz-adv-x="1294" d="M109 530q0 250 151 398.5t387 148.5t387.5 -148.5t151.5 -398.5q0 -249 -151.5 -397.5t-387.5 -148.5t-387 148.5t-151 397.5zM207 530q0 -218 123 -344.5t317 -126.5t317 126.5t123 344.5t-123 344.5t-317 126.5t-317 -126.5t-123 -344.5zM387 1194l217 305h92l217 -305 h-96l-166 252l-168 -252h-96z" />
<glyph unicode="&#xf5;" horiz-adv-x="1294" d="M109 530q0 250 151 398.5t387 148.5t387.5 -148.5t151.5 -398.5q0 -249 -151.5 -397.5t-387.5 -148.5t-387 148.5t-151 397.5zM207 530q0 -218 123 -344.5t317 -126.5t317 126.5t123 344.5t-123 344.5t-317 126.5t-317 -126.5t-123 -344.5zM362 1290q43 125 156 125 q49 0 137 -41q80 -41 127 -41q67 0 103 70l43 -19q-46 -124 -158 -124q-14 0 -27.5 2t-30.5 7.5t-23.5 8t-29 12t-24.5 10.5q-6 3 -23.5 11t-26.5 11.5t-23.5 9t-27.5 7.5t-26 2q-68 0 -102 -67z" />
<glyph unicode="&#xf6;" horiz-adv-x="1294" d="M109 530q0 250 151 398.5t387 148.5t387.5 -148.5t151.5 -398.5q0 -249 -151.5 -397.5t-387.5 -148.5t-387 148.5t-151 397.5zM207 530q0 -218 123 -344.5t317 -126.5t317 126.5t123 344.5t-123 344.5t-317 126.5t-317 -126.5t-123 -344.5zM393 1311q0 25 15.5 41 t42.5 16q29 0 45 -16t16 -41q0 -24 -16.5 -40t-44.5 -16q-27 0 -42.5 16t-15.5 40zM782 1311q0 25 16.5 41t43.5 16q28 0 42.5 -15.5t14.5 -41.5q0 -25 -14.5 -40.5t-42.5 -15.5q-27 0 -43.5 16t-16.5 40z" />
<glyph unicode="&#xf7;" horiz-adv-x="1200" d="M164 621v69h874v-69h-874zM539 319q0 27 17 43.5t46 16.5q30 0 46 -16.5t16 -43.5q0 -29 -16.5 -46t-45.5 -17q-30 0 -46.5 17.5t-16.5 45.5zM539 1006q0 27 17 44t46 17q30 0 46 -17t16 -44q0 -29 -16.5 -46.5t-45.5 -17.5q-30 0 -46.5 17.5t-16.5 46.5z" />
<glyph unicode="&#xf8;" horiz-adv-x="1294" d="M109 530q0 250 151 398.5t387 148.5q151 0 271 -63l75 116h58l-93 -141q107 -69 167.5 -187.5t60.5 -271.5q0 -249 -151.5 -397.5t-387.5 -148.5q-167 0 -289 73l-82 -127h-57l98 152q-99 72 -153.5 186t-54.5 262zM207 530q0 -247 155 -376l510 790q-102 57 -225 57 q-194 0 -317 -126.5t-123 -344.5zM403 125q104 -66 244 -66q194 0 317 126.5t123 344.5q0 129 -46 228.5t-128 161.5z" />
<glyph unicode="&#xf9;" horiz-adv-x="1243" d="M162 403v662h98v-659q0 -165 83.5 -254t238.5 -89q99 0 176.5 37t122.5 98t67.5 133t22.5 150v584h98v-1065h-84l-10 229q-53 -111 -156 -176t-258 -65q-195 0 -297 106t-102 309zM508 1495h94l100 -301h-75z" />
<glyph unicode="&#xfa;" horiz-adv-x="1243" d="M162 403v662h98v-659q0 -165 83.5 -254t238.5 -89q99 0 176.5 37t122.5 98t67.5 133t22.5 150v584h98v-1065h-84l-10 229q-53 -111 -156 -176t-258 -65q-195 0 -297 106t-102 309zM545 1194l125 303h94l-146 -303h-73z" />
<glyph unicode="&#xfb;" horiz-adv-x="1243" d="M162 403v662h98v-659q0 -165 83.5 -254t238.5 -89q99 0 176.5 37t122.5 98t67.5 133t22.5 150v584h98v-1065h-84l-10 229q-53 -111 -156 -176t-258 -65q-195 0 -297 106t-102 309zM360 1194l218 305h92l217 -305h-96l-166 252l-168 -252h-97z" />
<glyph unicode="&#xfc;" horiz-adv-x="1243" d="M162 403v662h98v-659q0 -165 83.5 -254t238.5 -89q99 0 176.5 37t122.5 98t67.5 133t22.5 150v584h98v-1065h-84l-10 229q-53 -111 -156 -176t-258 -65q-195 0 -297 106t-102 309zM371 1311q0 25 15 41t42 16q29 0 45 -16t16 -41q0 -24 -16.5 -40t-44.5 -16q-27 0 -42 16 t-15 40zM760 1311q0 25 16 41t43 16q28 0 43 -15.5t15 -41.5q0 -25 -15 -40.5t-43 -15.5q-27 0 -43 16t-16 40z" />
<glyph unicode="&#xfd;" horiz-adv-x="1155" d="M84 1065h109l397 -963l381 963h100l-455 -1141q-30 -73 -62.5 -125.5t-61.5 -81.5t-64 -45.5t-63.5 -21t-65.5 -4.5q-75 0 -156 16l4 76q97 -17 136 -17q84 0 136.5 54t98.5 170l21 51zM567 1194l125 303h94l-145 -303h-74z" />
<glyph unicode="&#xfe;" horiz-adv-x="1306" d="M178 -348v1782h98v-609q57 110 164.5 181t264.5 71q119 0 214 -41.5t155.5 -115t92 -172t31.5 -216.5q0 -156 -56 -278t-169 -194t-266 -72q-86 0 -160 22.5t-126 60.5t-87.5 79.5t-57.5 87.5v-586h-98zM274 532q0 -113 35 -204.5t93.5 -148t131 -86.5t150.5 -30 q194 0 305 127t111 342t-112 342t-306 127q-78 0 -150 -30t-130 -86.5t-93 -148t-35 -204.5z" />
<glyph unicode="&#xff;" horiz-adv-x="1155" d="M84 1065h109l397 -963l381 963h100l-455 -1141q-30 -73 -62.5 -125.5t-61.5 -81.5t-64 -45.5t-63.5 -21t-65.5 -4.5q-75 0 -156 16l4 76q97 -17 136 -17q84 0 136.5 54t98.5 170l21 51zM313 1311q0 25 15.5 41t42.5 16q29 0 45 -16t16 -41q0 -24 -16.5 -40t-44.5 -16 q-27 0 -42.5 16t-15.5 40zM702 1311q0 25 16.5 41t43.5 16q28 0 42.5 -15.5t14.5 -41.5q0 -25 -14.5 -40.5t-42.5 -15.5q-27 0 -43.5 16t-16.5 40z" />
<glyph unicode="&#x152;" horiz-adv-x="2539" d="M102 713q0 335 196.5 535t514.5 200q204 0 361.5 -89.5t246.5 -250.5v326h977v-82h-872v-613h751v-82h-751v-575h907v-82h-1012v324q-88 -159 -245 -248.5t-363 -89.5q-157 0 -289 51.5t-225 144.5t-145 229.5t-52 301.5zM213 713q0 -197 76.5 -343.5t212 -223 t311.5 -76.5q270 0 434 172.5t164 470.5q0 300 -164 475.5t-434 175.5q-268 0 -434 -175t-166 -476z" />
<glyph unicode="&#x153;" horiz-adv-x="2201" d="M109 530q0 250 151 398.5t387 148.5q171 0 302 -80.5t192 -226.5q58 143 184.5 225t302.5 82q114 0 205.5 -40.5t149 -111.5t88 -164.5t30.5 -201.5q0 -45 -4 -61h-903q1 -206 130 -320.5t345 -114.5q175 0 354 87l19 -74q-197 -88 -381 -88q-195 0 -329 79t-193 222 q-61 -144 -191 -224.5t-301 -80.5q-236 0 -387 148.5t-151 397.5zM207 530q0 -218 123 -344.5t317 -126.5t317 126.5t123 344.5t-123 344.5t-317 126.5t-317 -126.5t-123 -344.5zM1196 569h811q0 91 -23.5 169t-68.5 137t-118.5 92.5t-166.5 33.5q-191 0 -306 -114 t-128 -318z" />
<glyph unicode="&#x178;" horiz-adv-x="1245" d="M57 1434h109l457 -766l456 766h109l-512 -852v-582h-105v578zM371 1640q0 26 15 42t42 16q28 0 44.5 -16t16.5 -42q0 -24 -16.5 -39.5t-44.5 -15.5q-27 0 -42 15.5t-15 39.5zM760 1640q0 25 16 41.5t43 16.5q28 0 43 -16t15 -42q0 -24 -15 -39.5t-43 -15.5 q-27 0 -43 15.5t-16 39.5z" />
<glyph unicode="&#x2c6;" horiz-adv-x="808" d="M141 1155l217 305h93l217 -305h-97l-165 252l-168 -252h-97z" />
<glyph unicode="&#x2dc;" horiz-adv-x="876" d="M156 1251q43 125 155 125q50 0 138 -41q80 -41 126 -41q67 0 103 70l43 -18q-46 -125 -158 -125q-14 0 -28 2t-29.5 7.5t-24.5 9t-28 11.5t-25 11t-23.5 11t-26.5 11.5t-23.5 9t-27.5 7.5t-26 2q-67 0 -102 -68z" />
<glyph unicode="&#x2000;" horiz-adv-x="934" />
<glyph unicode="&#x2001;" horiz-adv-x="1868" />
<glyph unicode="&#x2002;" horiz-adv-x="934" />
<glyph unicode="&#x2003;" horiz-adv-x="1868" />
<glyph unicode="&#x2004;" horiz-adv-x="622" />
<glyph unicode="&#x2005;" horiz-adv-x="467" />
<glyph unicode="&#x2006;" horiz-adv-x="311" />
<glyph unicode="&#x2007;" horiz-adv-x="311" />
<glyph unicode="&#x2008;" horiz-adv-x="233" />
<glyph unicode="&#x2009;" horiz-adv-x="373" />
<glyph unicode="&#x200a;" horiz-adv-x="103" />
<glyph unicode="&#x2010;" horiz-adv-x="1050" d="M162 516v78h725v-78h-725z" />
<glyph unicode="&#x2011;" horiz-adv-x="1050" d="M162 516v78h725v-78h-725z" />
<glyph unicode="&#x2012;" horiz-adv-x="1050" d="M162 516v78h725v-78h-725z" />
<glyph unicode="&#x2013;" horiz-adv-x="1466" d="M162 516v76h1141v-76h-1141z" />
<glyph unicode="&#x2014;" horiz-adv-x="1990" d="M162 516v78h1667v-78h-1667z" />
<glyph unicode="&#x2018;" horiz-adv-x="495" d="M158 1188q0 141 155 225l23 -37q-119 -68 -119 -184q0 -30 10 -57q8 32 41 32q29 0 43.5 -16.5t14.5 -40.5q0 -30 -20 -48t-50 -18q-40 0 -69 40t-29 104z" />
<glyph unicode="&#x2019;" horiz-adv-x="499" d="M172 1073q52 30 85.5 77t33.5 110q0 23 -12 55q-8 -31 -41 -31q-28 0 -42 16t-14 41q0 29 19.5 46.5t50.5 17.5q40 0 69 -38.5t29 -102.5q0 -146 -157 -226z" />
<glyph unicode="&#x201a;" horiz-adv-x="477" d="M150 -209q51 28 84.5 74.5t33.5 109.5q0 26 -12 58q-8 -33 -41 -33q-28 0 -41.5 16t-13.5 41q0 30 19 48t50 18q40 0 69.5 -39.5t29.5 -103.5q0 -142 -158 -226z" />
<glyph unicode="&#x201c;" horiz-adv-x="780" d="M160 1190q0 142 155 223l23 -35q-52 -30 -85.5 -76.5t-33.5 -107.5q0 -30 10 -57q9 30 41 30q29 0 43.5 -15.5t14.5 -39.5q0 -30 -20 -47.5t-50 -17.5q-40 0 -69 39t-29 104zM442 1190q0 142 156 223l23 -35q-52 -30 -85.5 -76.5t-33.5 -107.5q0 -30 10 -57q9 30 41 30 q29 0 43 -15.5t14 -39.5q0 -30 -19.5 -47.5t-49.5 -17.5q-40 0 -69.5 39t-29.5 104z" />
<glyph unicode="&#x201d;" horiz-adv-x="782" d="M170 1075q52 30 85.5 77t33.5 110q0 20 -13 55q-8 -33 -40 -33q-27 0 -41.5 16.5t-14.5 40.5q0 30 19.5 48t50.5 18q40 0 69 -39t29 -104q0 -143 -158 -224zM455 1075q51 29 84.5 76.5t33.5 108.5q0 25 -12 57q-8 -33 -41 -33q-27 0 -41 16.5t-14 40.5q0 30 19.5 48 t50.5 18q40 0 69 -39t29 -104q0 -143 -158 -224z" />
<glyph unicode="&#x201e;" horiz-adv-x="759" d="M150 -209q51 28 84.5 74.5t33.5 109.5q0 26 -12 58q-8 -33 -41 -33q-28 0 -41.5 16t-13.5 41q0 30 19 48t50 18q40 0 69.5 -38t29.5 -103q0 -73 -42.5 -131t-115.5 -97zM432 -209q51 28 85 74.5t34 109.5q0 26 -12 58q-8 -33 -41 -33q-28 0 -42 16t-14 41q0 30 19.5 48 t50.5 18q40 0 69 -38t29 -103q0 -144 -157 -228z" />
<glyph unicode="&#x2022;" horiz-adv-x="700" d="M215 715q0 60 38 94.5t97 34.5q58 0 95.5 -34t37.5 -95t-37.5 -95t-95.5 -34q-59 0 -97 34.5t-38 94.5z" />
<glyph unicode="&#x2026;" horiz-adv-x="1130" d="M160 53q0 29 17.5 47.5t49.5 18.5q31 0 48.5 -18.5t17.5 -47.5q0 -28 -17.5 -44.5t-48.5 -16.5q-67 0 -67 61zM510 53q0 29 17.5 47.5t50.5 18.5q31 0 48 -18.5t17 -47.5q0 -28 -17.5 -44.5t-47.5 -16.5q-32 0 -50 16t-18 45zM858 53q0 29 17.5 47.5t50.5 18.5 q31 0 48 -18.5t17 -47.5q0 -28 -17.5 -44.5t-47.5 -16.5q-32 0 -50 16t-18 45z" />
<glyph unicode="&#x202f;" horiz-adv-x="373" />
<glyph unicode="&#x2039;" horiz-adv-x="706" d="M115 520v21l407 460l53 -55l-339 -414l339 -417l-55 -54z" />
<glyph unicode="&#x203a;" horiz-adv-x="706" d="M133 115l340 417l-340 414l53 55l408 -460v-21l-406 -459z" />
<glyph unicode="&#x205f;" horiz-adv-x="467" />
<glyph unicode="&#x20ac;" horiz-adv-x="1564" d="M123 813l22 53h160q44 269 231.5 425.5t458.5 156.5q95 0 205 -23.5t195 -64.5l-27 -76q-62 30 -159.5 55t-194.5 25q-242 0 -400 -135t-200 -363h731l-21 -53h-716q-7 -58 -7 -100q0 -45 7 -99h645l-21 -53h-618q42 -228 200.5 -359.5t399.5 -131.5q92 0 186 21t158 46 l4 -82q-163 -69 -365 -69q-275 0 -461.5 154.5t-230.5 420.5h-155l20 53h127q-4 66 -4 101q0 32 4 98h-174z" />
<glyph unicode="&#x2122;" horiz-adv-x="1595" d="M150 1376v58h495v-58h-217v-563h-59v563h-219zM815 813v621h57l246 -424l230 424h59v-621h-57v510l-211 -383h-41l-226 383v-510h-57z" />
<glyph unicode="&#x25fc;" horiz-adv-x="1064" d="M0 0v1065h1065v-1065h-1065z" />
</font>
</defs>
</svg>
