<!-- Generated by IcoMoon.io -->
<svg version="1.1" xmlns="http://www.w3.org/2000/svg" width="27" height="32" viewBox="0 0 27 32">
<title>avatar</title>
<path fill="#fff" d="M24.371 16.65l-0.199-0.352c-0.989-1.764-3.366-2.825-5.942-2.825-1.188 1.061-2.974 2.119-4.956 2.119s-3.761-1.058-4.953-2.119c-2.576 0-4.953 1.061-5.942 3.001v0.176c-1.587 2.825-2.38 5.999-2.38 9.53 0 1.937 0.398 3.701 0.993 5.82h25.161c0.598-2.119 0.793-3.883 0.793-5.999 0-3.352-0.993-6.526-2.576-9.351z"></path>
<path fill="#fff" d="M20.211 6.737c0 3.721-3.016 6.737-6.737 6.737s-6.737-3.016-6.737-6.737c0-3.721 3.016-6.737 6.737-6.737s6.737 3.016 6.737 6.737z"></path>
</svg>
