<!-- Generated by IcoMoon.io -->
<svg version="1.1" xmlns="http://www.w3.org/2000/svg" width="1024" height="1024" viewBox="0 0 1024 1024">
<title></title>
<g id="icomoon-ignore">
</g>
<path d="M0.002 102.395v51.202h307.2v51.202h-255.998v51.202h-51.202v51.199h256.001v51.202h-204.801v51.202h-51.202v51.202h204.799v51.202h-153.6v204.801c0 56.318 46.080 102.398 102.398 102.398h3.202c11.76 58.8 62.081 102.398 124.8 102.398s113.040-43.598 124.8-102.398h262.401c11.76 58.8 62.078 102.398 124.8 102.398s113.040-43.598 124.8-102.398h3.202c7.039 0 14.15-0.23 20.798-1.598 46.55-9.59 81.6-51.518 81.6-100.8v-188.798c0-10.241-4.478-21.758-9.6-32.002l-179.198-270.398c-10.241-10.241-26.239-20.798-41.602-20.798h-179.198c0-56.318-46.080-102.398-102.398-102.398h-511.999zM665.601 307.197h129.6l100.8 153.6h-230.4v-153.6zM281.601 742.395c30.72 0 51.202 20.482 51.202 51.202s-20.482 51.202-51.202 51.202c-30.72 0-51.202-20.482-51.202-51.202s20.482-51.202 51.202-51.202zM793.602 742.395c30.72 0 51.202 20.482 51.202 51.202s-20.482 51.202-51.202 51.202c-30.72 0-51.202-20.482-51.202-51.202s20.482-51.202 51.202-51.202z"></path>
</svg>
