<!-- Generated by IcoMoon.io -->
<svg version="1.1" xmlns="http://www.w3.org/2000/svg" width="1024" height="1024" viewBox="0 0 1024 1024">
<title></title>
<g id="icomoon-ignore">
</g>
<path d="M512 972.8c254.495 0 460.8-206.305 460.8-460.8s-206.305-460.8-460.8-460.8v0c-254.495 0-460.8 206.305-460.8 460.8s206.305 460.8 460.8 460.8v0zM512 1024c-282.78 0-512-229.22-512-512s229.22-512 512-512 512 229.22 512 512-229.22 512-512 512zM288.612 324.813l413.028 434.944c4.622 4.571 10.976 7.392 17.994 7.392 14.138 0 25.6-11.462 25.6-25.6 0-6.547-2.458-12.514-6.496-17.044l0.024 0.027-412.979-434.944c-4.676-4.927-11.273-7.993-18.588-7.993-14.141 0-25.605 11.464-25.605 25.605 0 6.827 2.673 13.031 7.030 17.626l-0.011-0.011zM701.645 289.587l-413.028 434.893c-4.347 4.577-7.018 10.784-7.018 17.613 0 14.141 11.464 25.605 25.605 25.605 7.315 0 13.911-3.065 18.575-7.979l0.011-0.011 412.979-434.944c4.699-4.641 7.606-11.086 7.606-18.208 0-14.138-11.462-25.6-25.6-25.6-7.592 0-14.418 3.305-19.104 8.556l-0.024 0.027z"></path>
</svg>
