<!-- Generated by IcoMoon.io -->
<svg version="1.1" xmlns="http://www.w3.org/2000/svg" width="31" height="32" viewBox="0 0 31 32">
<title>insta</title>
<path d="M23.831 9.8c-0.194-0.581-0.387-0.775-0.775-1.162s-0.775-0.581-1.163-0.775c-0.387-0.194-0.969-0.388-1.938-0.388h-8.525c-0.969 0-1.55 0.194-1.938 0.388-0.581 0.194-0.775 0.387-1.162 0.775s-0.581 0.775-0.775 1.162c-0.194 0.387-0.388 0.969-0.388 1.938v8.525c0 0.969 0.194 1.55 0.388 1.938 0.194 0.581 0.388 0.775 0.775 1.163s0.775 0.581 1.162 0.775c0.387 0.194 0.969 0.387 1.938 0.387h8.525c0.969 0 1.55-0.194 1.938-0.387 0.581-0.194 0.775-0.387 1.163-0.775s0.581-0.775 0.775-1.163c0.194-0.387 0.387-0.969 0.387-1.938v-8.525c0-1.162-0.194-1.55-0.387-1.938zM15.5 21.425c-3.1 0-5.425-2.519-5.425-5.425s2.519-5.425 5.425-5.425 5.425 2.519 5.425 5.425-2.325 5.425-5.425 5.425zM21.313 11.544c-0.775 0-1.356-0.581-1.356-1.356s0.581-1.356 1.356-1.356 1.356 0.581 1.356 1.356c-0.194 0.775-0.775 1.356-1.356 1.356z"></path>
<path d="M18.988 16c0 1.925-1.562 3.488-3.488 3.488s-3.488-1.562-3.488-3.488c0-1.925 1.562-3.488 3.488-3.488s3.488 1.562 3.488 3.488z"></path>
<path d="M29.063 0.5h-27.125c-1.163 0-1.938 0.775-1.938 1.937v27.125c0 1.163 0.969 1.938 1.938 1.938h27.125c1.163 0 1.938-0.969 1.938-1.938v-27.125c0-1.163-0.969-1.938-1.938-1.938zM26.156 20.456c0 1.163-0.194 1.938-0.581 2.519-0.194 0.775-0.581 1.356-1.163 1.938s-1.163 0.969-1.938 1.163c-0.775 0.194-1.55 0.387-2.519 0.581s-1.55 0-4.456 0h-4.456c-1.162 0-1.938-0.194-2.519-0.581-0.775-0.194-1.356-0.581-1.938-1.163s-0.969-1.163-1.162-1.938c-0.194-0.581-0.388-1.55-0.581-2.519s0-1.55 0-4.456v-4.456c0-1.162 0.194-1.938 0.581-2.519 0.194-0.775 0.581-1.356 1.162-1.938s1.162-0.969 1.938-1.162c0.775-0.194 1.55-0.388 2.519-0.581s1.55 0 4.456 0h4.456c1.163 0 1.938 0.194 2.519 0.581 0.775 0.194 1.356 0.581 1.938 1.162s0.969 1.162 1.163 1.938c0.194 0.581 0.387 1.55 0.581 2.519v8.913z"></path>
</svg>
