<!-- Generated by IcoMoon.io -->
<svg version="1.1" xmlns="http://www.w3.org/2000/svg" width="32" height="32" viewBox="0 0 32 32">
<title>linkedin</title>
<path d="M29.532 0.25h-27.564c-0.984 0-1.968 0.788-1.968 1.968v27.564c0 0.984 0.788 1.968 1.968 1.968h27.564c0.984 0 1.968-0.788 1.968-1.968v-27.564c0-1.182-0.788-1.968-1.968-1.968zM9.843 27.815h-5.907v-15.75h5.907v15.75zM6.891 10.095c-1.772 0-2.953-1.378-2.953-2.953s1.182-2.953 2.953-2.953 2.953 1.182 2.953 2.953c0.197 1.575-0.984 2.953-2.953 2.953zM27.564 27.815h-5.907v-9.843s-0.198-1.968-1.968-1.968-1.968 1.968-1.968 1.968v9.843h-5.907v-15.75h5.907v2.166c0.591-0.984 1.575-2.166 4.332-2.166 3.15 0 5.513 1.773 5.513 6.3v9.45z"></path>
</svg>
