<!-- Generated by IcoMoon.io -->
<svg version="1.1" xmlns="http://www.w3.org/2000/svg" width="35" height="32" viewBox="0 0 35 32">
<title>phone</title>
<path fill="#e04a71" d="M34.488 26.931c-0.512-0.233-6.913-3.982-7.17-3.982-0.512 0-0.769 0-1.025 0.233-1.025 0.238-2.306 1.408-3.075 1.641-0.769 0-1.537-0.233-2.050-0.466-1.281-0.471-2.050-1.175-3.070-1.875-1.537-1.171-2.818-2.341-4.099-3.516-1.281-1.166-2.306-2.337-3.587-3.507-0.769-0.937-1.533-1.875-2.050-2.812-0.508-0.704-0.508-1.171-0.508-1.875 0.252-0.704 1.533-1.875 1.789-2.812 0.256-0.229 0.256-0.7 0.256-0.933-0.256-0.233-4.351-6.090-4.607-6.557 0-0.233-0.256-0.233-0.512-0.471h-0.512c-0.256 0-0.512 0.238-0.769 0.471-0.512 0.7-0.769 1.171-1.281 1.637-0.512 0.937-1.281 1.875-1.793 2.812-0.512 1.404-0.512 2.812-0.256 4.216 0.256 0.933 0.769 1.87 1.281 2.808 0.769 1.171 1.537 2.341 2.306 3.516 2.050 2.574 4.351 4.682 6.657 7.023 2.306 2.108 4.868 4.216 7.686 6.090 1.281 0.7 2.302 1.404 3.583 2.108 1.025 0.466 2.306 0.933 3.331 1.166 1.537 0.233 3.070 0.233 4.607-0.233 1.025-0.466 2.050-1.171 3.075-1.87 0.512-0.238 1.025-0.704 1.537-0.937 0.256-0.233 0.512-0.471 0.769-0.704v-0.466c-0.256-0.238-0.512-0.471-0.512-0.704z"></path>
</svg>
