<!-- Generated by IcoMoon.io -->
<svg version="1.1" xmlns="http://www.w3.org/2000/svg" width="32" height="32" viewBox="0 0 32 32">
<title>pinterest</title>
<path d="M0.094 2v28c0 1.1 0.9 2 2 2h28c1.1 0 2-0.9 2-2v-28c0-1.1-0.9-2-2-2h-28c-1.1 0-2 0.9-2 2zM28.994 15.8c0 1.3-0.2 2.5-0.5 3.7-0.8-0.5-1.8-1-2.8-1.3-0.6-0.2-3.6-0.9-3.6-0.9 0.9-0.5 1.6-1.8 1.6-3.2 0-4.2-3.8-7-8.9-7-3.9 0-7.5 3.3-7.5 8.2 0 6.2 4.4 9.3 8.1 9.3 2.2 0 4.2-0.8 5-2.7 0.1-0.3 0-0.6-0.3-0.7-0.2-0.1-0.8-0.2-1-0.3-0.3-0.1-0.4-0.1-0.7 0.2-0.6 0.5-1.4 0.9-2.6 0.9-3.3 0-6.2-2.5-6.2-6.4 0-3.5 2.1-5.4 5-5.4 3.8 0 6.9 1.7 6.9 4.1 0 1.4-1.1 2.4-2.5 2.1-1.6-0.4-3.4-1.1-4.6-1.1-1.1 0-2 0.6-2 1.8 0 1.4 1.4 2.5 3.4 2.5 1.2 0 2.1-0.4 2.1-0.4s6 1.4 7.1 1.7c1 0.2 2.1 0.3 3 0.2-2 4.6-6.6 7.8-11.9 7.8-7.2 0-13-5.8-13-13s5.8-13 13-13c7.1-0.2 12.9 5.7 12.9 12.9z"></path>
</svg>
