<!-- Generated by IcoMoon.io -->
<svg version="1.1" xmlns="http://www.w3.org/2000/svg" width="33" height="32" viewBox="0 0 33 32">
<title>twitter</title>
<path d="M30.55 0h-28.5c-1 0-1.8 0.8-1.8 1.7v28.5c0 1 0.8 1.8 1.8 1.8h28.5c1 0 1.7-0.6 1.7-1.6v-28.6c0-1-0.7-1.8-1.7-1.8zM23.95 12.4c-0.6 4.6-3.4 7.6-6.6 8.9-1.7 0.7-3.6 1-5.9 0.6-2.2-0.4-3.9-1.3-5.2-2.5 2 0.5 3.8 0.2 5.1-0.4 0.2-0.1 0.5-0.2 0.5-0.3-1.8-0.4-2.7-1.6-3-3.1 0.5 0.1 1.2 0.3 1.6 0.1-1.6-0.7-2.6-2-2.3-4.1 0.4 0.3 0.8 0.6 1.5 0.7-0.6-0.7-1.3-1.9-1.1-3.3 0.1-0.7 0.4-1.3 0.8-1.8 1.5 2.3 3.5 4.3 7.1 5 0-2.5 1.5-3.8 3.4-4.1 0.9-0.1 1.2 0 1.9 0.3 0.5 0.2 0.9 0.5 1.2 0.9 0.2 0.2 0.3 0.3 0.5 0.4 0.1 0.1 1.7-0.2 2.3-0.3-0.7 0.7-1.7 1.5-1.7 1.6 1-0.1 1.4-0.2 2-0.2-0.8 0.6-1.2 1-2.1 1.6z"></path>
</svg>
